<svg xmlns="http://www.w3.org/2000/svg" xmlns:xlink="http://www.w3.org/1999/xlink" viewBox="0 0 3168.3 1074.7" version="1.0"><defs><linearGradient id="c"><stop stop-color="#696969" offset="0"/><stop stop-color="#fff" offset=".256"/><stop stop-color="#fff" offset=".704"/><stop stop-color="#7a7a7a" offset="1"/></linearGradient><linearGradient id="i"><stop stop-color="#fff" offset="0"/><stop stop-color="#fff" stop-opacity=".51" offset=".169"/><stop stop-color="#d6d6d6" offset=".759"/><stop stop-color="#555" offset="1"/></linearGradient><linearGradient id="b"><stop offset="0"/><stop stop-color="#fff" offset=".129"/><stop stop-color="#fff" offset=".832"/><stop offset="1"/></linearGradient><linearGradient id="e"><stop offset="0"/><stop stop-color="#fff" offset=".04"/><stop stop-color="#222" offset=".092"/><stop stop-color="#fff" offset=".148"/><stop stop-color="#313131" offset=".199"/><stop stop-color="#fff" offset=".229"/><stop stop-color="#383838" offset=".301"/><stop stop-color="#fff" offset=".35"/><stop stop-color="#383838" offset=".41"/><stop stop-color="#fff" offset=".455"/><stop stop-color="#424242" offset=".513"/><stop stop-color="#fff" offset=".572"/><stop stop-color="#454545" offset=".608"/><stop stop-color="#ededed" offset=".651"/><stop stop-color="#5f5f5f" offset=".69"/><stop stop-color="#e2e2e2" offset=".73"/><stop stop-color="#424242" offset=".79"/><stop stop-color="#e4e4e4" offset=".834"/><stop stop-color="#575757" offset=".884"/><stop stop-color="#e8e8e8" offset=".936"/><stop stop-color="#3b3b3b" offset="1"/></linearGradient><linearGradient id="f"><stop stop-color="#505050" offset="0"/><stop stop-color="#929292" offset=".304"/><stop stop-color="#cbcbcb" offset=".695"/><stop stop-color="#b5b5b5" offset="1"/></linearGradient><linearGradient id="g"><stop offset="0"/><stop stop-color="#fff" offset=".169"/><stop stop-color="#fff" offset=".782"/><stop offset="1"/></linearGradient><linearGradient id="d"><stop stop-color="#fff" offset="0"/><stop stop-color="#cbcbcb" offset=".401"/><stop stop-color="#1f1f1f" offset=".436"/><stop stop-color="#0f0f0f" offset=".502"/><stop offset=".536"/><stop stop-color="#cbcbcb" offset=".592"/><stop stop-color="#cbcbcb" offset=".68"/><stop stop-color="#fff" offset="1"/></linearGradient><linearGradient id="h"><stop offset="0"/><stop stop-color="#b1b1b1" offset=".5"/><stop stop-color="#d7d7d7" offset=".75"/><stop offset="1"/></linearGradient><linearGradient id="j"><stop stop-color="#fff" offset="0"/><stop stop-color="#d1d1d1" offset=".547"/><stop offset="1"/></linearGradient><linearGradient id="a"><stop offset="0"/><stop stop-color="#fff" offset=".5"/><stop stop-color="#fff" offset=".75"/><stop offset="1"/></linearGradient><linearGradient id="n" y2="215.52" xlink:href="#a" gradientUnits="userSpaceOnUse" x2="1356.9" gradientTransform="translate(1378.6 191.4)" y1="158.02" x1="1356.9"/><linearGradient id="p" y2="408.87" gradientUnits="userSpaceOnUse" x2="2758.8" gradientTransform="translate(-14.91 -4.95)" y1="361.37" x1="2759"><stop offset="0"/><stop stop-color="#fff" offset=".468"/><stop stop-color="#fff" offset=".75"/><stop offset="1"/></linearGradient><linearGradient id="y" y2="1159.8" gradientUnits="userSpaceOnUse" x2="2338" gradientTransform="translate(-331.94 -204.64)" y1="1159.8" x1="2304.7"><stop stop-color="#ffffc8" offset="0"/><stop stop-color="#fff" stop-opacity="0" offset="1"/></linearGradient><linearGradient id="A" y2="870.72" gradientUnits="userSpaceOnUse" x2="-1746.9" gradientTransform="translate(3908.5 296.51)" y1="-101.85" x1="-2269.3"><stop stop-opacity=".372" offset="0"/><stop stop-opacity=".073" offset="1"/></linearGradient><linearGradient id="R" y2="699.74" xlink:href="#b" gradientUnits="userSpaceOnUse" x2="1440.5" gradientTransform="translate(-998.91 -244.89)" y1="699.74" x1="1433"/><linearGradient id="S" y2="707.84" xlink:href="#c" gradientUnits="userSpaceOnUse" x2="1437" gradientTransform="translate(-998.91 -244.89)" y1="691.73" x1="1436.8"/><linearGradient id="T" y2="707.84" xlink:href="#c" gradientUnits="userSpaceOnUse" x2="1437" gradientTransform="translate(-998.91 -281.1)" y1="691.73" x1="1436.8"/><linearGradient id="U" y2="699.74" xlink:href="#b" gradientUnits="userSpaceOnUse" x2="1440.5" gradientTransform="translate(-998.91 -209.09)" y1="699.74" x1="1433"/><linearGradient id="V" y2="707.84" xlink:href="#c" gradientUnits="userSpaceOnUse" x2="1437" gradientTransform="translate(-998.91 -100.87)" y1="691.73" x1="1436.8"/><linearGradient id="W" y2="699.74" xlink:href="#b" gradientUnits="userSpaceOnUse" x2="1440.5" gradientTransform="translate(-998.91 -173.08)" y1="699.74" x1="1433"/><linearGradient id="X" y2="707.84" xlink:href="#c" gradientUnits="userSpaceOnUse" x2="1437" gradientTransform="translate(-998.91 -137.08)" y1="691.73" x1="1436.8"/><linearGradient id="Y" y2="699.74" xlink:href="#b" gradientUnits="userSpaceOnUse" x2="1440.5" gradientTransform="translate(-998.91 -137.08)" y1="699.74" x1="1433"/><linearGradient id="Z" y2="707.84" xlink:href="#c" gradientUnits="userSpaceOnUse" x2="1437" gradientTransform="translate(-998.91 -173.08)" y1="691.73" x1="1436.8"/><linearGradient id="aa" y2="699.74" xlink:href="#b" gradientUnits="userSpaceOnUse" x2="1440.5" gradientTransform="translate(-998.91 -100.87)" y1="699.74" x1="1433"/><linearGradient id="ab" y2="707.84" xlink:href="#c" gradientUnits="userSpaceOnUse" x2="1437" gradientTransform="translate(-998.91 -209.09)" y1="691.73" x1="1436.8"/><linearGradient id="ad" y2="704.31" gradientUnits="userSpaceOnUse" x2="1735.1" y1="704.31" x1="1726.8"><stop stop-color="#f4f4f4" offset="0"/><stop stop-color="#f4f4f4" stop-opacity="0" offset="1"/></linearGradient><linearGradient id="ae" y2="579.86" xlink:href="#d" gradientUnits="userSpaceOnUse" x2="2080.2" gradientTransform="matrix(-2.0039 -.49392 .47449 -1.9251 4361.7 2722.2)" y1="579.86" x1="2069.9"/><linearGradient id="af" y2="579.86" xlink:href="#d" gradientUnits="userSpaceOnUse" x2="2080.2" gradientTransform="matrix(1.9936 -.53418 .51316 1.9151 -3955.7 434.89)" y1="579.86" x1="2069.9"/><linearGradient id="ag" y2="579.86" xlink:href="#d" gradientUnits="userSpaceOnUse" x2="2080.2" gradientTransform="matrix(-.933 -1.841 1.7685 -.89629 1389.1 4848.8)" y1="579.86" x1="2069.9"/><linearGradient id="aj" y2="418.25" xlink:href="#e" spreadMethod="repeat" gradientUnits="userSpaceOnUse" x2="635.22" gradientTransform="matrix(0 -.38953 2.9011 0 -752.32 705.07)" y1="413.81" x1="635.05"/><linearGradient id="ak" y2="419.19" xlink:href="#f" gradientUnits="userSpaceOnUse" x2="705.42" gradientTransform="translate(-178.7 35.652)" y1="419.19" x1="675"/><linearGradient id="al" y2="419.19" xlink:href="#a" gradientUnits="userSpaceOnUse" x2="674.18" gradientTransform="matrix(1.0595 0 0 1.0265 -218.04 24.533)" y1="419.19" x1="657.19"/><linearGradient id="am" y2="419.19" xlink:href="#g" gradientUnits="userSpaceOnUse" x2="723.24" gradientTransform="translate(-178.7 35.652)" y1="419.19" x1="706.24"/><linearGradient id="an" y2="579.86" xlink:href="#d" gradientUnits="userSpaceOnUse" x2="2080.2" gradientTransform="matrix(.64561 -.17299 .16618 .62021 -904.16 442.54)" y1="579.86" x1="2069.9"/><linearGradient id="ao" y2="579.86" xlink:href="#d" gradientUnits="userSpaceOnUse" x2="2080.2" gradientTransform="matrix(.33419 -.57884 .55606 .32104 -484.03 1481.4)" y1="579.86" x1="2069.9"/><linearGradient id="ap" y2="579.86" xlink:href="#d" gradientUnits="userSpaceOnUse" x2="2080.2" gradientTransform="matrix(-.35673 .95808 -.92038 -.34269 1829 -1369.2)" y1="579.86" x1="2069.9"/><linearGradient id="aq" y2="579.86" xlink:href="#d" gradientUnits="userSpaceOnUse" x2="2080.2" gradientTransform="matrix(-.2286 .99645 -.95724 -.21961 1584.7 -1342.3)" y1="579.86" x1="2069.9"/><linearGradient id="ar" y2="579.86" xlink:href="#d" gradientUnits="userSpaceOnUse" x2="2080.2" gradientTransform="matrix(.78698 -.65257 .62689 .75601 -1441.5 1478.3)" y1="579.86" x1="2069.9"/><linearGradient id="as" y2="579.86" xlink:href="#d" gradientUnits="userSpaceOnUse" x2="2080.2" gradientTransform="matrix(-.68288 .76082 -.73088 -.65601 2396 -671.32)" y1="579.86" x1="2069.9"/><linearGradient id="at" y2="579.86" xlink:href="#d" gradientUnits="userSpaceOnUse" x2="2080.2" gradientTransform="matrix(.98253 -.2825 .27138 .94387 -1641 530.09)" y1="579.86" x1="2069.9"/><linearGradient id="au" y2="579.86" xlink:href="#d" gradientUnits="userSpaceOnUse" x2="2080.2" gradientTransform="matrix(-.77558 .66607 -.63986 -.74507 2535.4 -494.5)" y1="579.86" x1="2069.9"/><linearGradient id="av" y2="418.25" xlink:href="#e" spreadMethod="repeat" gradientUnits="userSpaceOnUse" x2="635.22" gradientTransform="matrix(0 -.38953 2.9011 0 -752.32 668.86)" y1="413.81" x1="635.05"/><linearGradient id="aw" y2="419.19" xlink:href="#f" gradientUnits="userSpaceOnUse" x2="705.42" gradientTransform="translate(-178.7 -.556)" y1="419.19" x1="675"/><linearGradient id="ax" y2="419.19" xlink:href="#a" gradientUnits="userSpaceOnUse" x2="674.18" gradientTransform="matrix(1.0595 0 0 1.0265 -218.04 -11.675)" y1="419.19" x1="657.19"/><linearGradient id="ay" y2="419.19" xlink:href="#g" gradientUnits="userSpaceOnUse" x2="723.24" gradientTransform="translate(-178.7 -.556)" y1="419.19" x1="706.24"/><linearGradient id="az" y2="579.86" xlink:href="#d" gradientUnits="userSpaceOnUse" x2="2080.2" gradientTransform="matrix(.64561 -.17299 .16618 .62021 -900.02 406.34)" y1="579.86" x1="2069.9"/><linearGradient id="aA" y2="579.86" xlink:href="#d" gradientUnits="userSpaceOnUse" x2="2080.2" gradientTransform="matrix(.33419 -.57884 .55606 .32104 -479.9 1445.2)" y1="579.86" x1="2069.9"/><linearGradient id="aB" y2="418.25" xlink:href="#e" spreadMethod="repeat" gradientUnits="userSpaceOnUse" x2="635.22" gradientTransform="matrix(0 -.38953 2.9011 0 -752.32 740.87)" y1="413.81" x1="635.05"/><linearGradient id="aC" y2="419.19" xlink:href="#f" gradientUnits="userSpaceOnUse" x2="705.42" gradientTransform="translate(-178.7 71.457)" y1="419.19" x1="675"/><linearGradient id="aD" y2="419.19" xlink:href="#a" gradientUnits="userSpaceOnUse" x2="674.18" gradientTransform="matrix(1.0595 0 0 1.0265 -218.04 60.338)" y1="419.19" x1="657.19"/><linearGradient id="aE" y2="419.19" xlink:href="#g" gradientUnits="userSpaceOnUse" x2="723.24" gradientTransform="translate(-178.7 71.457)" y1="419.19" x1="706.24"/><linearGradient id="aF" y2="579.86" xlink:href="#d" gradientUnits="userSpaceOnUse" x2="2080.2" gradientTransform="matrix(.64561 -.17299 .16618 .62021 -900.02 478.35)" y1="579.86" x1="2069.9"/><linearGradient id="aG" y2="579.86" xlink:href="#d" gradientUnits="userSpaceOnUse" x2="2080.2" gradientTransform="matrix(.33419 -.57884 .55606 .32104 -479.9 1517.2)" y1="579.86" x1="2069.9"/><linearGradient id="aH" y2="418.25" xlink:href="#e" spreadMethod="repeat" gradientUnits="userSpaceOnUse" x2="635.22" gradientTransform="matrix(0 -.38953 2.9011 0 -752.32 776.88)" y1="413.81" x1="635.05"/><linearGradient id="aI" y2="419.19" xlink:href="#f" gradientUnits="userSpaceOnUse" x2="705.42" gradientTransform="translate(-178.7 107.46)" y1="419.19" x1="675"/><linearGradient id="aJ" y2="419.19" xlink:href="#a" gradientUnits="userSpaceOnUse" x2="674.18" gradientTransform="matrix(1.0595 0 0 1.0265 -218.04 96.343)" y1="419.19" x1="657.19"/><linearGradient id="aK" y2="419.19" xlink:href="#g" gradientUnits="userSpaceOnUse" x2="723.24" gradientTransform="translate(-178.7 107.46)" y1="419.19" x1="706.24"/><linearGradient id="aL" y2="579.86" xlink:href="#d" gradientUnits="userSpaceOnUse" x2="2080.2" gradientTransform="matrix(.64561 -.17299 .16618 .62021 -900.02 514.35)" y1="579.86" x1="2069.9"/><linearGradient id="aM" y2="579.86" xlink:href="#d" gradientUnits="userSpaceOnUse" x2="2080.2" gradientTransform="matrix(.33419 -.57884 .55606 .32104 -479.9 1553.2)" y1="579.86" x1="2069.9"/><linearGradient id="aN" y2="418.25" xlink:href="#e" spreadMethod="repeat" gradientUnits="userSpaceOnUse" x2="635.22" gradientTransform="matrix(0 -.38953 2.9011 0 -752.32 812.88)" y1="413.81" x1="635.05"/><linearGradient id="aO" y2="419.19" xlink:href="#f" gradientUnits="userSpaceOnUse" x2="705.42" gradientTransform="translate(-178.7 143.47)" y1="419.19" x1="675"/><linearGradient id="aP" y2="419.19" xlink:href="#a" gradientUnits="userSpaceOnUse" x2="674.18" gradientTransform="matrix(1.0595 0 0 1.0265 -218.04 132.35)" y1="419.19" x1="657.19"/><linearGradient id="aQ" y2="419.19" xlink:href="#g" gradientUnits="userSpaceOnUse" x2="723.24" gradientTransform="translate(-178.7 143.47)" y1="419.19" x1="706.24"/><linearGradient id="aR" y2="579.86" xlink:href="#d" gradientUnits="userSpaceOnUse" x2="2080.2" gradientTransform="matrix(.64561 -.17299 .16618 .62021 -900.02 550.36)" y1="579.86" x1="2069.9"/><linearGradient id="aS" y2="579.86" xlink:href="#d" gradientUnits="userSpaceOnUse" x2="2080.2" gradientTransform="matrix(.33419 -.57884 .55606 .32104 -479.9 1589.2)" y1="579.86" x1="2069.9"/><linearGradient id="aT" y2="418.25" xlink:href="#e" spreadMethod="repeat" gradientUnits="userSpaceOnUse" x2="635.22" gradientTransform="matrix(0 -.38953 2.9011 0 -752.32 849.09)" y1="413.81" x1="635.05"/><linearGradient id="aU" y2="419.19" xlink:href="#f" gradientUnits="userSpaceOnUse" x2="705.42" gradientTransform="translate(-178.7 179.67)" y1="419.19" x1="675"/><linearGradient id="aV" y2="419.19" xlink:href="#a" gradientUnits="userSpaceOnUse" x2="674.18" gradientTransform="matrix(1.0595 0 0 1.0265 -218.04 168.56)" y1="419.19" x1="657.19"/><linearGradient id="aW" y2="419.19" xlink:href="#g" gradientUnits="userSpaceOnUse" x2="723.24" gradientTransform="translate(-178.7 179.67)" y1="419.19" x1="706.24"/><linearGradient id="aX" y2="579.86" xlink:href="#d" gradientUnits="userSpaceOnUse" x2="2080.2" gradientTransform="matrix(.64561 -.17299 .16618 .62021 -900.02 586.57)" y1="579.86" x1="2069.9"/><linearGradient id="aY" y2="579.86" xlink:href="#d" gradientUnits="userSpaceOnUse" x2="2080.2" gradientTransform="matrix(.33419 -.57884 .55606 .32104 -479.9 1625.4)" y1="579.86" x1="2069.9"/><linearGradient id="bb" y2="579.86" xlink:href="#d" gradientUnits="userSpaceOnUse" x2="2080.2" y1="579.86" x1="2069.9"/><linearGradient id="bd" y2="632.36" xlink:href="#h" gradientUnits="userSpaceOnUse" x2="2055.6" y1="632.36" x1="2038.7"/><linearGradient id="be" y2="632.36" xlink:href="#h" gradientUnits="userSpaceOnUse" x2="2055.1" y1="632.36" x1="2039.2"/><linearGradient id="bn" y2="508.76" xlink:href="#a" gradientUnits="userSpaceOnUse" x2="2528.4" y1="508.76" x1="2524.2"/><linearGradient id="br" y2="508.93" xlink:href="#d" gradientUnits="userSpaceOnUse" x2="2419" y1="508.93" x1="2410.2"/><linearGradient id="bq" y2="508.93" xlink:href="#a" gradientUnits="userSpaceOnUse" x2="2419" y1="508.93" x1="2410.2"/><linearGradient id="bt" y2="510.16" xlink:href="#d" gradientUnits="userSpaceOnUse" x2="1099.6" y1="510.16" x1="1090.8"/><linearGradient id="bs" y2="510.16" xlink:href="#a" gradientUnits="userSpaceOnUse" x2="1099.6" y1="510.16" x1="1090.8"/><linearGradient id="bv" y2="510.12" xlink:href="#d" gradientUnits="userSpaceOnUse" x2="1134.5" y1="510.12" x1="1125.7"/><linearGradient id="bu" y2="510.12" xlink:href="#a" gradientUnits="userSpaceOnUse" x2="1134.5" y1="510.12" x1="1125.7"/><linearGradient id="bx" y2="510.06" xlink:href="#d" gradientUnits="userSpaceOnUse" x2="1207" y1="510.06" x1="1198.2"/><linearGradient id="bw" y2="510.06" xlink:href="#a" gradientUnits="userSpaceOnUse" x2="1207" y1="510.06" x1="1198.2"/><linearGradient id="bz" y2="510.09" xlink:href="#d" gradientUnits="userSpaceOnUse" x2="1169.2" y1="510.09" x1="1160.4"/><linearGradient id="by" y2="510.09" xlink:href="#a" gradientUnits="userSpaceOnUse" x2="1169.2" y1="510.09" x1="1160.4"/><linearGradient id="bB" y2="510.02" xlink:href="#d" gradientUnits="userSpaceOnUse" x2="1244.7" y1="510.02" x1="1235.9"/><linearGradient id="bA" y2="510.02" xlink:href="#a" gradientUnits="userSpaceOnUse" x2="1244.7" y1="510.02" x1="1235.9"/><linearGradient id="bD" y2="509.99" xlink:href="#d" gradientUnits="userSpaceOnUse" x2="1286" y1="509.99" x1="1277.2"/><linearGradient id="bC" y2="509.99" xlink:href="#a" gradientUnits="userSpaceOnUse" x2="1286" y1="509.99" x1="1277.2"/><linearGradient id="bF" y2="509.94" xlink:href="#d" gradientUnits="userSpaceOnUse" x2="1330.2" y1="509.94" x1="1321.4"/><linearGradient id="bE" y2="509.94" xlink:href="#a" gradientUnits="userSpaceOnUse" x2="1330.2" y1="509.94" x1="1321.4"/><linearGradient id="bH" y2="509.9" xlink:href="#d" gradientUnits="userSpaceOnUse" x2="1377.6" y1="509.9" x1="1368.8"/><linearGradient id="bG" y2="509.9" xlink:href="#a" gradientUnits="userSpaceOnUse" x2="1377.6" y1="509.9" x1="1368.8"/><linearGradient id="bJ" y2="509.85" xlink:href="#d" gradientUnits="userSpaceOnUse" x2="1428.1" y1="509.85" x1="1419.3"/><linearGradient id="bI" y2="509.85" xlink:href="#a" gradientUnits="userSpaceOnUse" x2="1428.1" y1="509.85" x1="1419.3"/><linearGradient id="bL" y2="509.8" xlink:href="#d" gradientUnits="userSpaceOnUse" x2="1481.8" y1="509.8" x1="1473"/><linearGradient id="bK" y2="509.8" xlink:href="#a" gradientUnits="userSpaceOnUse" x2="1481.8" y1="509.8" x1="1473"/><linearGradient id="bN" y2="509.75" xlink:href="#d" gradientUnits="userSpaceOnUse" x2="1535.1" y1="509.75" x1="1526.3"/><linearGradient id="bM" y2="509.75" xlink:href="#a" gradientUnits="userSpaceOnUse" x2="1535.1" y1="509.75" x1="1526.3"/><linearGradient id="bP" y2="509.7" xlink:href="#d" gradientUnits="userSpaceOnUse" x2="1595.2" y1="509.7" x1="1586.4"/><linearGradient id="bO" y2="509.7" xlink:href="#a" gradientUnits="userSpaceOnUse" x2="1595.2" y1="509.7" x1="1586.4"/><linearGradient id="bR" y2="509.64" xlink:href="#d" gradientUnits="userSpaceOnUse" x2="1656.4" y1="509.64" x1="1647.6"/><linearGradient id="bQ" y2="509.64" xlink:href="#a" gradientUnits="userSpaceOnUse" x2="1656.4" y1="509.64" x1="1647.6"/><linearGradient id="bT" y2="509.58" xlink:href="#d" gradientUnits="userSpaceOnUse" x2="1722.7" y1="509.58" x1="1713.9"/><linearGradient id="bS" y2="509.58" xlink:href="#a" gradientUnits="userSpaceOnUse" x2="1722.7" y1="509.58" x1="1713.9"/><linearGradient id="bV" y2="509.51" xlink:href="#d" gradientUnits="userSpaceOnUse" x2="1792.8" y1="509.51" x1="1784"/><linearGradient id="bU" y2="509.51" xlink:href="#a" gradientUnits="userSpaceOnUse" x2="1792.8" y1="509.51" x1="1784"/><linearGradient id="bX" y2="509.45" xlink:href="#d" gradientUnits="userSpaceOnUse" x2="1865.1" y1="509.45" x1="1856.3"/><linearGradient id="bW" y2="509.45" xlink:href="#a" gradientUnits="userSpaceOnUse" x2="1865.1" y1="509.45" x1="1856.3"/><linearGradient id="bZ" y2="509.37" xlink:href="#d" gradientUnits="userSpaceOnUse" x2="1944.2" y1="509.37" x1="1935.4"/><linearGradient id="bY" y2="509.37" xlink:href="#a" gradientUnits="userSpaceOnUse" x2="1944.2" y1="509.37" x1="1935.4"/><linearGradient id="cb" y2="509.29" xlink:href="#d" gradientUnits="userSpaceOnUse" x2="2029.8" y1="509.29" x1="2021"/><linearGradient id="ca" y2="509.29" xlink:href="#a" gradientUnits="userSpaceOnUse" x2="2029.8" y1="509.29" x1="2021"/><linearGradient id="cd" y2="509.21" xlink:href="#d" gradientUnits="userSpaceOnUse" x2="2118.6" y1="509.21" x1="2109.8"/><linearGradient id="cc" y2="509.21" xlink:href="#a" gradientUnits="userSpaceOnUse" x2="2118.6" y1="509.21" x1="2109.8"/><linearGradient id="cf" y2="509.12" xlink:href="#d" gradientUnits="userSpaceOnUse" x2="2210.2" y1="509.12" x1="2201.4"/><linearGradient id="ce" y2="509.12" xlink:href="#a" gradientUnits="userSpaceOnUse" x2="2210.2" y1="509.12" x1="2201.4"/><linearGradient id="ch" y2="509.03" xlink:href="#d" gradientUnits="userSpaceOnUse" x2="2311.1" y1="509.03" x1="2302.3"/><linearGradient id="cg" y2="509.03" xlink:href="#a" gradientUnits="userSpaceOnUse" x2="2311.1" y1="509.03" x1="2302.3"/><linearGradient id="cj" y2="457.91" gradientUnits="userSpaceOnUse" x2="2678.5" y1="457.5" x1="2669.9"><stop stop-color="#9e9e9e" offset="0"/><stop stop-color="#9e9e9e" stop-opacity="0" offset="1"/></linearGradient><filter id="ai"><feGaussianBlur stdDeviation=".356"/></filter><filter id="z" y="-.109" width="1.107" x="-.054" height="1.219"><feGaussianBlur stdDeviation="11.646"/></filter><filter id="bp"><feGaussianBlur stdDeviation="2.965"/></filter><filter id="C"><feGaussianBlur stdDeviation="16.493"/></filter><filter id="ba" y="-.083" width="1.333" x="-.167" height="1.166"><feGaussianBlur stdDeviation="11.215"/></filter><filter id="r" y="-.117" width="1.234" x="-.117" height="1.234"><feGaussianBlur stdDeviation="2.759"/></filter><filter id="bc"><feGaussianBlur stdDeviation="1.348"/></filter><filter id="bk" y="-.24" width="1.48" x="-.24" height="1.48"><feGaussianBlur stdDeviation="2.969"/></filter><filter id="bl"><feGaussianBlur stdDeviation=".297"/></filter><filter id="ci"><feGaussianBlur stdDeviation="3.124"/></filter><filter id="Q" y="-.241" width="2.244" x="-.622" height="1.482"><feGaussianBlur stdDeviation="1.539"/></filter><filter id="P" y="-.239" width="2.244" x="-.622" height="1.478"><feGaussianBlur stdDeviation="1.539"/></filter><filter id="O" y="-.239" width="2.243" x="-.622" height="1.477"><feGaussianBlur stdDeviation="1.539"/></filter><filter id="N" y="-.236" width="2.182" x="-.591" height="1.473"><feGaussianBlur stdDeviation="1.539"/></filter><filter id="M" y="-.236" width="2.182" x="-.591" height="1.473"><feGaussianBlur stdDeviation="1.539"/></filter><filter id="L" y="-.239" width="2.24" x="-.62" height="1.478"><feGaussianBlur stdDeviation="1.539"/></filter><filter id="K" y="-.019" width="158.47" x="-78.734" height="1.037"><feGaussianBlur stdDeviation="1.539"/></filter><filter id="J" y="-.23" width="2.074" x="-.537" height="1.46"><feGaussianBlur stdDeviation="1.539"/></filter><filter id="I" y="-.23" width="2.074" x="-.537" height="1.46"><feGaussianBlur stdDeviation="1.539"/></filter><filter id="H" y="-.229" width="2.06" x="-.53" height="1.459"><feGaussianBlur stdDeviation="1.539"/></filter><filter id="G" y="-.229" width="2.069" x="-.535" height="1.459"><feGaussianBlur stdDeviation="1.539"/></filter><filter id="F" y="-.23" width="2.074" x="-.537" height="1.46"><feGaussianBlur stdDeviation="1.539"/></filter><filter id="E" y="-.23" width="2.084" x="-.542" height="1.46"><feGaussianBlur stdDeviation="1.539"/></filter><filter id="ah" y="-.126" width="1.504" x="-.252" height="1.252"><feGaussianBlur stdDeviation="1.89"/></filter><filter id="w" y="-.032" width="3.115" x="-1.058" height="1.063"><feGaussianBlur stdDeviation="2.341"/></filter><filter id="q" y="-.078" width="1.317" x="-.158" height="1.156"><feGaussianBlur stdDeviation="3.297"/></filter><filter id="D" y="-.059" width="2.675" x="-.838" height="1.119"><feGaussianBlur stdDeviation="5.554"/></filter><filter id="o"><feGaussianBlur stdDeviation=".242"/></filter><filter id="m" y="-.04" width="1.233" x="-.116" height="1.081"><feGaussianBlur stdDeviation=".429"/></filter><radialGradient id="s" xlink:href="#i" gradientUnits="userSpaceOnUse" cy="762.21" cx="236.24" gradientTransform="matrix(.6411 .71831 -.76751 .68501 2061.7 261.85)" r="29.069"/><radialGradient id="t" gradientUnits="userSpaceOnUse" cy="759.02" cx="237.31" gradientTransform="matrix(.54475 .83638 -.95717 .62342 832.98 89.983)" r="29.069"><stop stop-color="#fff" offset="0"/><stop stop-color="#fff" stop-opacity=".51" offset=".169"/><stop stop-color="#d6d6d6" offset=".759"/><stop stop-color="#555" offset="1"/></radialGradient><radialGradient id="u" xlink:href="#i" gradientUnits="userSpaceOnUse" cy="762.21" cx="236.24" gradientTransform="matrix(.6411 .71831 -.76751 .68501 2256.3 261.51)" r="29.069"/><radialGradient id="v" xlink:href="#i" gradientUnits="userSpaceOnUse" cy="762.21" cx="236.24" gradientTransform="matrix(.6411 .71831 -.76751 .68501 669.79 70.393)" r="29.069"/><radialGradient id="x" gradientUnits="userSpaceOnUse" cy="1159.8" cx="2321.4" gradientTransform="matrix(1 0 0 .56259 -331.88 302.68)" r="16.619"><stop stop-color="#ffffc8" offset="0"/><stop stop-color="#dbdbdb" stop-opacity=".589" offset="1"/></radialGradient><radialGradient id="ac" gradientUnits="userSpaceOnUse" cy="717.93" cx="1790.2" gradientTransform="matrix(1.8218 .02243 -.03328 2.7029 -1447.3 -1262.7)" r="64.018"><stop stop-color="#f4f4f4" offset="0"/><stop stop-color="#fff" offset=".169"/><stop stop-color="#fff" offset=".648"/><stop stop-color="#b2b2b2" offset="1"/></radialGradient><radialGradient id="aZ" gradientUnits="userSpaceOnUse" cy="578.34" cx="2072.9" gradientTransform="matrix(.67428 .84952 -.89807 .71281 1194.6 -1595.6)" r="4.734"><stop offset="0"/><stop stop-opacity=".063" offset="1"/></radialGradient><radialGradient id="bf" xlink:href="#a" gradientUnits="userSpaceOnUse" cy="648.85" cx="2820.2" gradientTransform="matrix(.65411 4.5439 -1.5805 .22761 1968.4 -12323)" r="15.381"/><radialGradient id="bg" xlink:href="#j" gradientUnits="userSpaceOnUse" cy="887.69" cx="4217.6" gradientTransform="matrix(1.9538 2.1884 -1.3027 .06111 -2863.9 -8397.2)" r="29.9"/><radialGradient id="bh" xlink:href="#j" gradientUnits="userSpaceOnUse" cy="887.69" cx="4217.6" gradientTransform="matrix(1.8127 -2.2795 -1.1259 -.23854 -3923.9 10215)" r="29.9"/><radialGradient id="bi" xlink:href="#j" gradientUnits="userSpaceOnUse" cy="887.69" cx="4217.6" gradientTransform="matrix(1.8127 -2.2795 -1.1259 -.23854 -3669.2 10260)" r="29.9"/><radialGradient id="bj" xlink:href="#j" gradientUnits="userSpaceOnUse" cy="887.69" cx="4217.6" gradientTransform="matrix(1.8127 -2.2795 -1.1259 -.23854 -3796.3 10238)" r="29.9"/><radialGradient id="bm" gradientUnits="userSpaceOnUse" cy="639.84" cx="4073.4" gradientTransform="matrix(1 0 0 .99925 0 .483)" r="16.35"><stop stop-color="#fff" offset="0"/><stop stop-color="#d1d1d1" offset=".444"/><stop offset="1"/></radialGradient><pattern id="l" xlink:href="#k" patternTransform="matrix(.99174 0 0 .98776 -201.42 -203.83)"/><pattern id="k" xlink:href="#b" patternTransform="translate(-198.69 -214.72)"/><pattern id="bo" xlink:href="#d" patternTransform="translate(2500 1363.9)"/><clipPath id="B"><path fill="url(#l)" d="M621.76 886.66c-96.16 3.61-165.37 36.63-173.24 81.84-15.82 91 90.53 119.9 92.4 167.2.61 17.2-33.54 63.8-79.51 62.6-75.72 2.4-169.56-82.3-253.6-80.6-138.1 2.8-246.14 186.1-491.52 185.2-80.83 5.4-206.33-59.5-279.91-178.4-31.57-48.1-83.83-141.95-91.85-337.09 11.17-253.72 141.23-378.8 151.31-390.9 127.45-134.76 282.38-96.79 337.76-82.21 182.99 52.53 268.15 164.61 393.41 187.98 46.16 8.61 121.97-18.96 150.72-28.24 35.14-11.35 54.32-23.64 114.25-42.21 25.88-8.02 66.93-19.62 104.23-12.53 118.6 42.56 80.82 88.02 4.46 161.43-58.17 55.92-37.81 98.47 20.76 131.21 1.37.76.41 3.07.41 4.6"/></clipPath></defs><g transform="translate(13.605 15.663)"><g transform="translate(-1393.5 -198.35)"><path filter="url(#m)" fill="url(#n)" d="M2730.6 371.7h8.839v25.456h-8.839z"/><rect opacity=".707" rx="2" ry="2" height="39.598" filter="url(#o)" width="8.839" stroke="#000" y="364.62" x="2739.6" fill="url(#p)"/></g><g transform="matrix(-1 0 0 1 2735.9 108.25)"><path filter="url(#m)" fill="url(#n)" d="M2730.6 371.7h8.839v25.456h-8.839z"/><rect opacity=".613" rx="2" ry="2" height="39.598" filter="url(#o)" width="8.839" stroke="#000" y="364.62" x="2739.6" fill="url(#p)"/></g><path d="M1288.4 596.38c-97 3.65-166.8 37.08-174.7 82.86-16 92.1 91.3 121.37 93.1 169.31.7 17.4-33.8 64.5-80.1 63.3-76.4 2.4-171-83.3-255.7-81.6-139.3 2.8-248.2 188.4-495.7 187.5-81.5 5.5-208-60.2-282.2-180.6C61.3 788.46 8.6 693.46.5 495.89 11.7 239.04 142.9 112.4 153.1 100.16c128.5-136.44 284.7-98 340.5-83.24C678.1 70.1 764 183.57 890.3 207.23c46.6 8.72 123-19.2 152-28.59 35.4-11.49 54.8-23.93 115.2-42.73 26.1-8.12 67.5-19.87 105.1-12.69 119.6 43.09 81.5 89.11 4.5 163.43-58.7 56.62-38.1 99.69 20.9 132.84 1.4.77.4 3.11.4 4.66" fill="none"/><path d="M1164.8 422.6v174.99"/><path opacity=".55" d="M1611 904.62c-42.8 11.5-73.8 74.78 0 101.28-27.7 0-50-22.3-50-50v-1.28c0-27.7 22.3-50 50-50z" transform="translate(-1394.5 -196.35)" filter="url(#q)" stroke="#000" stroke-width=".1"/><rect transform="translate(-1394.5 -196.35)" rx="50" ry="50" height="101.28" width="506.95" stroke="#000" y="904.99" x="1566.6" stroke-width=".1" fill="#efefef"/><path d="M519.7 756.81h87.414v4.091H519.7z"/><path filter="url(#r)" d="M1624.7 924.08c-16.3.17-29.1 18.06-24 33.5 4 16.04 24.5 24.37 38.4 15.6 14.5-7.65 17.6-28.97 6.3-40.53-5.2-5.79-13-9-20.7-8.57z" transform="translate(-1394.5 -196.35)" fill="url(#s)"/><path d="M262.43 758.91a28.319 28.319 0 11-56.64 0 28.319 28.319 0 1156.64 0z" fill="url(#t)"/><path filter="url(#r)" d="M1819.4 923.74c-16.3.16-29.2 18.05-24 33.5 3.9 16.04 24.4 24.36 38.4 15.6 14.4-7.65 17.6-28.97 6.3-40.54-5.2-5.78-13-8.99-20.7-8.56z" transform="translate(-1394.5 -196.35)" fill="url(#u)"/><path d="M262.43 758.91a28.319 28.319 0 11-56.64 0 28.319 28.319 0 1156.64 0z" transform="translate(196.09 .37)" fill="url(#v)"/><path d="M578.4 758.81s1.1 3.72 2.2 5.27c1.2 1.65 2.6 3.95 4.6 4.04 9.5.44 26.3-2.41 26.3-9.31 0-6.63-17.1-9.72-26.3-9.31-2 .09-3.5 2.27-4.7 3.91-1.1 1.53-2.2 5.4-2.2 5.4h.1z" fill="#a6a6a6"/><path filter="url(#w)" d="M2451.4 617.44v178.18h5.3V617.44h-5.3z" style="block-progression:tb;text-transform:none;text-indent:0" transform="translate(-1394.5 -196.35)"/><path d="M1972.9 955.16s1.2 3.72 2.3 5.27c1.2 1.65 2.5 3.95 4.6 4.04 9.4.44 26.3-2.41 26.3-9.31 0-6.63-17.1-9.72-26.3-9.31-2.1.09-3.6 2.27-4.8 3.91-1.1 1.53-2.1 5.4-2.1 5.4z" transform="translate(-1394.5 -196.35)" fill="url(#x)"/><path d="M1972.9 955.16s1.1 3.72 2.2 5.27c1.2 1.65 2.6 3.95 4.6 4.04 9.5.44 26.3-2.41 26.3-9.31 0-6.63-17.1-9.72-26.3-9.31-2 .09-3.5 2.27-4.7 3.91-1.1 1.53-2.2 5.4-2.2 5.4h.1z" transform="translate(-1394.5 -196.35)" fill="url(#y)"/><path opacity=".78" d="M1777.2 208.64c-68 .35-151.6 20.78-225.9 99.66-5.3 6.43-44 44.47-81.3 116.37l-18.5 39.38c-.1.1-.1.21-.1.31L1972 253.95a652.109 652.109 0 00-80.1-28.9c-23.6-6.23-65-16.66-114.7-16.41z" transform="translate(-1394.5 -196.35)" filter="url(#z)" fill="url(#A)"/><path d="M-282.49 291.85c-68.07.35-151.65 20.78-225.94 99.66-10.17 12.25-141.3 138.89-152.56 395.75 8.08 197.56 60.79 292.54 92.62 341.24 74.2 120.4 200.74 186.1 282.25 180.6 247.43.9 356.34-184.7 495.6-187.5 84.74-1.7 179.36 84 255.72 81.6 46.35 1.2 80.77-45.9 80.15-63.3-1.89-47.9-109.11-77.2-93.15-169.3 7.93-45.78 77.72-79.22 174.68-82.87l.07-172.22c0-1.55.97-3.88-.41-4.66-59.06-33.14-79.59-76.22-20.94-132.84 77-74.32 115.09-120.35-4.5-163.44-37.61-7.18-78.99 4.57-105.09 12.69-60.42 18.8-79.76 31.23-115.19 42.72-28.99 9.39-105.43 37.34-151.97 28.62-126.3-23.66-212.2-137.16-396.72-190.34-23.55-6.23-64.95-16.66-114.62-16.41zm-5.38 32c76.33-.78 150.44 23.43 218.07 56.91C13.552 420.6 85.15 482.62 172.01 515.7c32.97 14.05 69.56 18.75 105.19 14.59 87.77-10.45 165.83-56.34 250.4-78.53 30.62-10.34 66.07-10.35 94.5 6.12 8.34 6.05 21.37 10.03 23.28 21.53-12.65 32.73-41.88 54.13-65.46 78.72-23.67 22.95-42.71 53.97-41.1 88.13 1.92 35.49 27.46 64.75 56.19 82.94-.15 27.41-.09 54.83-.09 82.25.34 15.58-.31 31.18.03 46.75-44.06 4.67-88.94 14.88-126.16 39.81-37.14 21.19-56.16 66.83-49.44 108.59 6.24 42.2 35.71 75.8 66.13 103.7 8.64 9.7 21.36 16.3 26.4 28.7-6.49 18.6-26.37 30.8-45.56 32.4-17.76-.3-34.95-5.2-51.72-10.9-57.25-20.4-108.65-57.7-169.5-67.7-37.7-7.3-76.84-1-112.22 13-63.029 24.6-116.57 67.7-175.22 100.7-68.58 40.6-146.02 67.6-225.96 70.8-60.92 4.4-120.84-18.8-169.32-54.5-76.72-55.2-129.94-138.4-158.37-227.7-22.89-78.43-36.23-160.55-30.44-242.44 9.88-110.49 46.83-220.33 115.19-308.34 50.85-71.33 134.97-120.07 223.37-120.47z" clip-path="url(#B)" fill-opacity=".516" transform="matrix(1.0083 0 0 1.0124 661.43 -301.27)" filter="url(#C)"/><path opacity=".743" d="M1825.1 818.96h15.9l-.7-224.75-15.2.3" transform="translate(-1394.5 -196.35)" filter="url(#D)" stroke="#000" stroke-width=".2"/><path opacity=".644" filter="url(#E)" d="M438.54 427.23h-6.82v-16.06h6.79" fill="none"/><path opacity=".644" filter="url(#F)" d="M438.6 463.45h-6.88v-16.06h6.85" fill="none"/><path opacity=".644" filter="url(#G)" d="M438.63 499.26h-6.91V483.2l6.91-.03" fill="none"/><path opacity=".644" filter="url(#H)" d="M438.69 535.26h-6.97V519.2l6.94-.03" fill="none"/><path opacity=".644" filter="url(#I)" d="M438.6 572.28h-6.88v-16.06h6.85" fill="none"/><path opacity=".644" filter="url(#J)" d="M438.55 609.3h-6.87v-16.06h6.84" fill="none"/><path filter="url(#K)" d="M438.51 411.17l.04 198.13"/><path filter="url(#L)" d="M432.07 527.25v-7.66h.91c.5 0 1.84-.03 2.98-.07l2.07-.06v15.46h-5.96v-7.67z"/><path filter="url(#M)" d="M431.8 564.37v-7.82h6.25v15.63h-6.25v-7.81z"/><path filter="url(#N)" d="M431.8 601.09v-7.82h6.25v15.63h-6.25v-7.81z"/><path filter="url(#O)" d="M432.11 455.45v-7.73h5.94l-.04 7.7-.03 7.7-2.94.03-2.93.04v-7.74z"/><path filter="url(#P)" d="M432.11 491.22v-7.73h5.94v15.46h-5.94v-7.73z"/><path filter="url(#Q)" d="M432.11 419.2v-7.67h5.94v15.33h-5.94v-7.66z"/><path stroke-linejoin="bevel" d="M441.67 462.88h-7.62v-16.07l7.6-.01.02 16.08z" stroke="#000" stroke-width=".2" fill="url(#R)"/><path d="M441.67 462.88h-7.62v-16.07l7.6-.01.02 16.08z" fill="url(#S)"/><path d="M441.67 426.67h-7.62V410.6l7.6-.01.02 16.08z" fill="url(#T)"/><path stroke-linejoin="bevel" d="M441.67 498.68h-7.62v-16.06l7.6-.02.02 16.08z" stroke="#000" stroke-width=".2" fill="url(#U)"/><path d="M441.67 606.9h-7.62v-16.06l7.6-.02.02 16.08z" fill="url(#V)"/><path stroke-linejoin="bevel" d="M441.67 534.69h-7.62v-16.07l7.6-.01.02 16.08z" stroke="#000" stroke-width=".2" fill="url(#W)"/><path d="M441.67 570.69h-7.62v-16.06l7.6-.02.02 16.08z" fill="url(#X)"/><path stroke-linejoin="bevel" d="M441.67 570.69h-7.62v-16.06l7.6-.02.02 16.08z" stroke="#000" stroke-width=".2" fill="url(#Y)"/><path d="M441.67 534.69h-7.62v-16.07l7.6-.01.02 16.08z" fill="url(#Z)"/><path stroke-linejoin="bevel" d="M441.67 606.9h-7.62v-16.06l7.6-.02.02 16.08z" stroke="#000" stroke-width=".2" fill="url(#aa)"/><path d="M441.67 498.68h-7.62v-16.06l7.6-.02.02 16.08z" fill="url(#ab)"/><g stroke="#000" fill="none"><path d="M1801.4 821.42v17.26c0 4.42-1.4 7.98-7.9 8.27h-63.4c-2.1.1-3.2-1.14-3.2-2.95V588.9H1833c10.7.52 19.9 2.91 20.5 15.08v202.41c-.4 8.86-5.3 13.91-14.8 15.03h-37.3z" stroke-width=".2" fill="url(#ac)" transform="translate(-1285.8 -196.29)"/><path d="M1726.9 819.71h8.1V588.9" stroke-width=".2" fill="url(#ad)" transform="translate(-1285.8 -196.29)"/><path stroke-linejoin="bevel" d="M483.96 632.824a7.955 7.955 0 11-15.9 0 7.955 7.955 0 1115.9 0zM477.7 447.41c-6.9 0-11.6-4.22-11.5-10.22.2-5.9 3.9-10.63 11.5-10.63m0 164.85c-6.9 0-11.6-4.22-11.5-10.22.2-5.9 3.9-10.63 11.5-10.63" stroke-width="2"/><g stroke="#acacac" stroke-width=".177"><path d="M477.44 567.66c-9.53 1.01-17.15 12.96-9.56 21.4 2.16 2.66 5.39 4.55 8.84 5.06.32.07.62.12.94.16v-26.62c-.08 0-.15-.01-.22 0z" fill="url(#ae)"/><path d="M477.66 423.78c-1.24.11-2.46.35-3.63.78-13.85 4.2-10.64 25.7 3.63 25.69v-26.47z" fill="url(#af)"/><path d="M477.47 495.66c-5.69.24-11.1 3.68-11.97 10.43-.61 3.38.08 7.05 1.94 10 2.34 4.28 6.23 6.24 10.22 6.44v-26.87c-.07 0-.13-.01-.19 0z" fill="url(#ag)"/></g><path d="M474.8 639.65c-3.64-.64-6.14-3.89-5.77-7.5.6-5.82 7.46-8.31 11.81-4.29.43.4 1.08 1.35 1.43 2.1 2.34 4.94-2.06 10.65-7.47 9.69z" fill="#000"/><path d="M474.66 641.71c-3.76-.59-6.68-3.33-7.5-7.03-.17-.78-.21-2.42-.08-3.25.52-3.16 2.73-5.87 5.69-6.97 3.23-1.2 6.81-.49 9.29 1.85 2 1.88 3.01 4.5 2.8 7.25-.17 2.08-1 3.94-2.46 5.46a9.096 9.096 0 01-4.76 2.62c-.74.15-2.24.19-2.98.07zm5.82-3.65c0-.02-.04 0-.1.05s-.1.1-.1.12.04 0 .1-.05.1-.1.1-.12zm.79-.77c.07-.08.11-.14.09-.14s-.09.06-.16.14c-.07.07-.11.14-.09.14s.09-.07.16-.14z" fill="#000"/></g><path filter="url(#ah)" d="M469.9 401.08v36.01h18v-36.01h-18z" transform="matrix(.53643 0 0 1.0689 219.49 78.592)"/><path filter="url(#ah)" d="M469.9 401.08v36.01h18v-36.01h-18z" transform="matrix(.53643 0 0 1.0689 216.04 6.764)"/><path opacity=".99" d="M463.67 460.21c-11.22 0-14.37-.01-14.47-.04-.07-.03-.03-2.45.08-5.39l.2-5.34 14.27-.01 14.26-.01v10.79h-14.34z" filter="url(#ai)" stroke="#000" stroke-width=".2" fill="url(#aj)"/><path d="M449.48 449.34l28.53.14v10.73h-28.53v-10.87zm46.55 23.51h31.02m-31.02-36l-18.02-.01v12.64m49.04-12.64l13.48.47.12 35.34-13.6.2v-36.01l-31.02.01v36h-18.02v-12.64" stroke="#000" stroke-width=".2" fill="none"/><path stroke-linejoin="bevel" d="M496.03 449.62h25.95v10.45h-25.95" stroke="#000" stroke-width=".2" fill="none"/><path filter="url(#ah)" d="M469.9 401.08v36.01h18v-36.01h-18z" transform="matrix(.53643 0 0 1.0689 218 41.92)"/><g stroke="#000" stroke-width=".2"><path stroke-linejoin="bevel" d="M498.46 454.84a2.95 2.95 0 11-5.9 0 2.95 2.95 0 115.9 0z"/><path d="M496.3 466.5v-5.89l12.95-.08 12.95-.07v-11.23l-12.95-.07-12.95-.07v-11.78h30.42v35.07H496.3v-5.88z" fill="url(#ak)" transform="translate(-4)"/><path d="M478.26 454.85v-18.01h18v36.01h-18v-18z" fill="url(#al)" transform="translate(-4)"/><path d="M527.54 454.85v-17.54h16.99v35.07h-16.99v-17.53z" fill="url(#am)" transform="translate(-4)"/><path d="M492.48 458.03v-1.54l.44.53c.95 1.16 2.79 1.52 4.18.83 1.16-.58 1.82-1.68 1.82-3.01s-.66-2.43-1.82-3.01c-1.57-.78-3.66-.2-4.46 1.23-.11.21-.15-.08-.15-1.34l-.01-1.61h25.08v9.46h-25.08v-1.54z" fill="#2e2e2e"/></g><path d="M530.38 439.2c-4.52 1.37-3.42 8.44 1.3 8.31 4.72.36 6.44-6.71 2-8.26a4.632 4.632 0 00-3.3-.05z" stroke="#000" stroke-width=".2" fill="url(#an)"/><path d="M527.97 464.68c-2.23 4.17 3.55 8.39 6.8 4.96 3.59-3.09-.19-9.31-4.43-7.26a4.658 4.658 0 00-2.37 2.3z" stroke="#000" stroke-width=".2" fill="url(#ao)"/><path d="M561.44 421.88c2.31-6.86-7.48-11.76-11.51-5.76-4.63 5.57 2.66 13.99 8.53 9.83 1.43-.92 2.53-2.4 2.98-4.07z" stroke="#acacac" stroke-width=".088" fill="url(#ap)"/><path d="M561.72 598.94c1.39-7.1-8.96-10.68-12.17-4.2-3.86 6.12 4.46 13.52 9.73 8.62a7.104 7.104 0 002.44-4.42z" stroke="#acacac" stroke-width=".088" fill="url(#aq)"/><path d="M550.38 557.97c-5.41 4.79.63 13.92 7.12 10.73 6.78-2.52 4.67-13.45-2.5-12.77a7.15 7.15 0 00-4.62 2.04z" stroke="#acacac" stroke-width=".088" fill="url(#ar)"/><path d="M560.43 530.91c4.66-5.53-2.66-13.67-8.6-9.57-6.35 3.49-2.65 13.99 4.33 12.27a7.104 7.104 0 004.27-2.7z" stroke="#acacac" stroke-width=".088" fill="url(#as)"/><path d="M552.71 485.11c-6.88 2.22-5 13 2.22 12.67 7.23.42 9.67-10.44 2.83-12.69a7.089 7.089 0 00-5.05.02z" stroke="#acacac" stroke-width=".088" fill="url(#at)"/><path d="M559.75 460.12c5.34-4.88-.87-13.91-7.29-10.6-6.75 2.64-4.44 13.53 2.71 12.72 1.69-.11 3.38-.88 4.58-2.12z" stroke="#acacac" stroke-width=".088" fill="url(#au)"/><path filter="url(#ah)" d="M469.9 401.08v36.01h18v-36.01h-18z" transform="matrix(.53643 0 0 1.0689 215.26 -26.783)"/><path opacity=".99" d="M463.67 424.01c-11.22 0-14.37-.02-14.47-.05-.07-.03-.03-2.45.08-5.39l.2-5.34 14.27-.01 14.26-.01V424h-14.34v.01z" filter="url(#ai)" stroke="#000" stroke-width=".2" fill="url(#av)"/><path d="M449.13 413.14l28.88.13V424h-28.88v-10.86zm46.9 23.5h31.02m-31.02-36l-18.02-.01v12.64m49.04-12.64l11.48.47v36l-11.48-.46v-36.01l-31.02.01v36h-18.02V424" stroke="#000" stroke-width=".2" fill="none"/><g stroke="#000" stroke-width=".2"><path stroke-linejoin="bevel" d="M496.46 418.63a2.95 2.95 0 11-5.9 0 2.95 2.95 0 115.9 0z"/><path stroke-linejoin="bevel" d="M490.03 413.41h25.95v10.45h-25.95" fill="none"/><path d="M496.3 430.29v-5.89l12.95-.07 12.95-.07v-11.24l-12.95-.07-12.95-.07V401.1h30.42v35.08H496.3v-5.89z" fill="url(#aw)" transform="translate(-6)"/><path d="M478.26 418.64v-18.01h18v36.01h-18v-18z" fill="url(#ax)" transform="translate(-6)"/><path d="M527.54 418.64V401.1h16.99v35.08h-16.99v-17.54zm12.23 13.56c.05-.15-1.52-1.18-3.48-2.3-2.78-1.57-3.65-1.95-3.9-1.69-.25.25-.23.38.09.57 6.72 3.99 7.07 4.16 7.29 3.42zm-2.51-21.22c.09-.15-.29-2-.85-4.11-.85-3.25-1.09-3.85-1.53-3.85-.37 0-.48.14-.38.48.2.67 1.43 5.17 1.8 6.57.3 1.13.63 1.45.96.91z" fill="url(#ay)" transform="translate(-6)"/><path d="M490.48 421.82v-1.54l.44.53c.95 1.16 2.79 1.52 4.18.83 1.16-.57 1.82-1.67 1.82-3.01 0-1.33-.66-2.43-1.82-3-1.57-.79-3.66-.21-4.46 1.22-.11.22-.15-.08-.15-1.33l-.01-1.61h25.08v9.45h-25.08v-1.54z" fill="#2e2e2e"/><path d="M534.52 402.99c-4.53 1.37-3.43 8.44 1.3 8.32 4.72.35 6.44-6.72 2-8.27a4.632 4.632 0 00-3.3-.05z" fill="url(#az)" transform="translate(-6)"/><path d="M532.11 428.47c-2.23 4.17 3.55 8.39 6.8 4.96 3.59-3.08-.19-9.3-4.43-7.26a4.66 4.66 0 00-2.37 2.3z" fill="url(#aA)" transform="translate(-6)"/></g><path opacity=".99" d="M463.67 496.02c-11.22 0-14.37-.01-14.47-.05-.07-.03-.03-2.45.08-5.39l.2-5.34 14.27-.01 14.26-.01v10.8h-14.34z" filter="url(#ai)" stroke="#000" stroke-width=".2" fill="url(#aB)"/><path d="M449.48 485.15l28.53.13v10.74h-28.53v-10.87zm46.55 23.5h31.02m-31.02-36h-18.02v12.63m49.04-12.64l14.19.47v35.08l-14.19.46v-36.01l-31.02.01v36h-18.02v-12.63" stroke="#000" stroke-width=".2" fill="none"/><g stroke="#000" stroke-width=".2"><path stroke-linejoin="bevel" d="M499.172 490.64a2.95 2.95 0 11-5.9 0 2.95 2.95 0 115.9 0z"/><path stroke-linejoin="bevel" d="M492.741 485.43h25.95v10.44h-25.95" fill="none"/><path d="M496.3 502.3v-5.89l12.95-.07 12.95-.07v-11.24l-12.95-.07-12.95-.07v-11.78h30.42v35.08H496.3v-5.89z" fill="url(#aC)" transform="translate(-3.288)"/><path d="M478.26 490.65v-18h18v36h-18v-18z" fill="url(#aD)" transform="translate(-3.288)"/><path d="M527.54 490.65v-17.54h16.99v35.08h-16.99v-17.54zm12.23 13.57c.05-.15-1.52-1.19-3.48-2.3-2.78-1.58-3.65-1.95-3.9-1.7-.25.26-.23.39.09.57 6.72 3.99 7.07 4.16 7.29 3.43zm-2.51-21.23c.09-.15-.29-2-.85-4.11-.85-3.25-1.09-3.85-1.53-3.85-.37 0-.48.14-.38.48.2.67 1.43 5.17 1.8 6.58.3 1.13.63 1.44.96.9z" fill="url(#aE)" transform="translate(-3.288)"/><path d="M493.192 493.84v-1.54l.44.53c.95 1.15 2.79 1.52 4.18.83 1.16-.58 1.82-1.68 1.82-3.01 0-1.34-.66-2.44-1.82-3.01-1.57-.78-3.66-.21-4.46 1.23-.11.21-.15-.09-.15-1.34l-.01-1.61h25.08v9.45h-25.08v-1.53z" fill="#2e2e2e"/><path d="M534.52 475c-4.53 1.37-3.43 8.45 1.3 8.32 4.72.35 6.44-6.72 2-8.27a4.686 4.686 0 00-3.3-.05z" fill="url(#aF)" transform="translate(-3.288)"/><path d="M532.11 500.48c-2.23 4.17 3.55 8.4 6.8 4.97 3.59-3.09-.19-9.31-4.43-7.26a4.64 4.64 0 00-2.37 2.29z" fill="url(#aG)" transform="translate(-3.288)"/></g><path opacity=".99" d="M463.67 532.02c-11.22 0-14.37-.01-14.47-.04-.07-.03-.03-2.45.08-5.39l.2-5.34 14.27-.01 14.26-.01v10.79h-14.34z" filter="url(#ai)" stroke="#000" stroke-width=".2" fill="url(#aH)"/><path d="M449.48 521.15l28.53.14v10.73h-28.53v-10.87zm46.55 23.51h31.02m-31.02-36l-18.02-.01v12.64m49.04-12.64l15.29.47v35.07l-15.29.47v-36.01l-31.02.01v36h-18.02v-12.64" stroke="#000" stroke-width=".2" fill="none"/><path filter="url(#ah)" d="M469.9 401.08v36.01h18v-36.01h-18z" transform="matrix(.53643 0 0 1.0689 221.17 112.28)"/><g stroke="#000" stroke-width=".2"><path stroke-linejoin="bevel" d="M500.268 526.65a2.95 2.95 0 11-5.9 0 2.95 2.95 0 115.9 0z"/><path stroke-linejoin="bevel" d="M493.838 521.43h25.95v10.45h-25.95" fill="none"/><path d="M496.3 538.31v-5.89l12.95-.08 12.95-.07v-11.23l-12.95-.07-12.95-.07v-11.78h30.42v35.07H496.3v-5.88z" fill="url(#aI)" transform="translate(-2.192)"/><path d="M478.26 526.66v-18.01h18v36.01h-18v-18z" fill="url(#aJ)" transform="translate(-2.192)"/><path d="M527.54 526.66v-17.54h16.99v35.07h-16.99v-17.53zm12.23 13.56c.05-.15-1.52-1.18-3.48-2.3-2.78-1.57-3.65-1.95-3.9-1.69-.25.25-.23.38.09.57 6.72 3.99 7.07 4.16 7.29 3.42zm-2.51-21.23c.09-.14-.29-1.99-.85-4.11-.85-3.24-1.09-3.84-1.53-3.84-.37 0-.48.14-.38.47.2.68 1.43 5.18 1.8 6.58.3 1.13.63 1.44.96.9z" fill="url(#aK)" transform="translate(-2.192)"/><path d="M494.288 529.84v-1.54l.44.53c.95 1.16 2.79 1.52 4.18.83 1.16-.58 1.82-1.68 1.82-3.01s-.66-2.43-1.82-3.01c-1.57-.78-3.66-.2-4.46 1.23-.11.21-.15-.08-.15-1.34l-.01-1.61h25.08v9.46h-25.08v-1.54z" fill="#2e2e2e"/><path d="M534.52 511.01c-4.53 1.37-3.43 8.44 1.3 8.31 4.72.36 6.44-6.71 2-8.26a4.632 4.632 0 00-3.3-.05z" fill="url(#aL)" transform="translate(-2.192)"/><path d="M532.11 536.49c-2.23 4.17 3.55 8.39 6.8 4.96 3.59-3.09-.19-9.31-4.43-7.26-1.02.43-1.9 1.27-2.37 2.3z" fill="url(#aM)" transform="translate(-2.192)"/></g><path opacity=".99" d="M463.67 568.03c-11.22 0-14.37-.01-14.47-.05-.07-.03-.03-2.45.08-5.39l.2-5.34 14.27-.01 14.26-.01v10.8h-14.34z" filter="url(#ai)" stroke="#000" stroke-width=".2" fill="url(#aN)"/><path d="M449.48 557.16l28.53.13v10.74h-28.53v-10.87zm46.55 23.5h31.02m-31.02-36h-18.02v12.63m49.04-12.64l16.11.47v35.08l-16.11.46v-36.01l-31.02.01v36h-18.02v-12.63" stroke="#000" stroke-width=".2" fill="none"/><path filter="url(#ah)" d="M469.9 401.08v36.01h18v-36.01h-18z" transform="matrix(.53643 0 0 1.0689 223.26 147.22)"/><g stroke="#000" stroke-width=".2"><path stroke-linejoin="bevel" d="M501.09 562.65a2.95 2.95 0 11-5.9 0 2.95 2.95 0 115.9 0z"/><path stroke-linejoin="bevel" d="M494.66 557.44h25.95v10.44h-25.95" fill="none"/><path d="M496.3 574.31v-5.89l12.95-.07 12.95-.07v-11.24l-12.95-.07-12.95-.07v-11.78h30.42v35.08H496.3v-5.89z" fill="url(#aO)" transform="translate(-1.37)"/><path d="M478.26 562.66v-18h18v36h-18v-18z" fill="url(#aP)" transform="translate(-1.37)"/><path d="M527.54 562.66v-17.54h16.99v35.08h-16.99v-17.54zm12.23 13.57c.05-.15-1.52-1.19-3.48-2.3-2.78-1.58-3.65-1.95-3.9-1.7-.25.26-.23.39.09.57 6.72 3.99 7.07 4.16 7.29 3.43zM537.26 555c.09-.15-.29-2-.85-4.11-.85-3.25-1.09-3.85-1.53-3.85-.37 0-.48.14-.38.48.2.67 1.43 5.17 1.8 6.58.3 1.13.63 1.44.96.9z" fill="url(#aQ)" transform="translate(-1.37)"/><path d="M495.11 565.85v-1.54l.44.53c.95 1.15 2.79 1.52 4.18.82 1.16-.57 1.82-1.67 1.82-3 0-1.34-.66-2.44-1.82-3.01-1.57-.78-3.66-.21-4.46 1.23-.11.21-.15-.09-.15-1.34l-.01-1.61h25.08v9.45h-25.08v-1.53z" fill="#2e2e2e"/><path d="M534.52 547.01c-4.53 1.37-3.43 8.45 1.3 8.32 4.72.35 6.44-6.72 2-8.27a4.686 4.686 0 00-3.3-.05z" fill="url(#aR)" transform="translate(-1.37)"/><path d="M532.11 572.49c-2.23 4.17 3.55 8.4 6.8 4.97 3.59-3.09-.19-9.31-4.43-7.26a4.64 4.64 0 00-2.37 2.29z" fill="url(#aS)" transform="translate(-1.37)"/></g><path opacity=".99" d="M463.67 604.24c-11.22 0-14.37-.01-14.47-.05-.07-.03-.03-2.45.08-5.39l.2-5.34 14.27-.01 14.26-.01v10.8h-14.34z" filter="url(#ai)" stroke="#000" stroke-width=".2" fill="url(#aT)"/><path d="M449.48 593.37l28.53.13v10.74h-28.53v-10.87zm46.55 23.5h31.02m-31.02-36l-18.02-.01v12.64m49.04-12.64l17.48.47v35.05l-17.48.49v-36.01l-31.02.01v36h-18.02v-12.63" stroke="#000" stroke-width=".2" fill="none"/><g stroke="#000" stroke-width=".2"><path stroke-linejoin="bevel" d="M502.46 598.86a2.95 2.95 0 11-5.9 0 2.95 2.95 0 115.9 0z"/><path stroke-linejoin="bevel" d="M496.03 593.64h25.95v10.45h-25.95" fill="none"/><path d="M496.3 610.52v-5.89l12.95-.07 12.95-.07v-11.24l-12.95-.07-12.95-.07v-11.78h30.42v35.08H496.3v-5.89z" fill="url(#aU)"/><path d="M478.26 598.87v-18.01h18v36.01h-18v-18z" fill="url(#aV)"/><path d="M527.54 598.87v-17.54h16.99v35.08h-16.99v-17.54zm12.23 13.56c.05-.15-1.52-1.18-3.48-2.3-2.78-1.57-3.65-1.95-3.9-1.69-.25.25-.23.38.09.57 6.72 3.99 7.07 4.16 7.29 3.42zm-2.51-21.22c.09-.15-.29-2-.85-4.11-.85-3.25-1.09-3.85-1.53-3.85-.37 0-.48.14-.38.48.2.67 1.43 5.17 1.8 6.57.3 1.13.63 1.45.96.91z" fill="url(#aW)"/><path d="M496.48 602.05v-1.53l.44.52c.95 1.16 2.79 1.53 4.18.83 1.16-.57 1.82-1.67 1.82-3 0-1.34-.66-2.44-1.82-3.01-1.57-.79-3.66-.21-4.46 1.22-.11.22-.15-.08-.15-1.33l-.01-1.61h25.08v9.45h-25.08v-1.54z" fill="#2e2e2e"/><path d="M534.52 583.22c-4.53 1.37-3.43 8.44 1.3 8.32 4.72.35 6.44-6.72 2-8.27a4.632 4.632 0 00-3.3-.05z" fill="url(#aX)"/><path d="M532.11 608.7c-2.23 4.17 3.55 8.39 6.8 4.96 3.59-3.08-.19-9.3-4.43-7.26-1.02.44-1.9 1.28-2.37 2.3z" fill="url(#aY)"/></g><path d="M2079.7 579.86a4.672 4.672 0 11-9.3 0 4.672 4.672 0 119.3 0z" transform="rotate(-45 1491.209 3698.12) scale(1.456)" stroke="#acacac" stroke-width=".088" fill="url(#aZ)"/><path d="M2079.7 579.86a4.672 4.672 0 11-9.3 0 4.672 4.672 0 119.3 0z" transform="rotate(-45 1276.405 3609.287) scale(1.456)" stroke="#acacac" stroke-width=".088" fill="url(#aZ)"/><path d="M2079.7 579.86a4.672 4.672 0 11-9.3 0 4.672 4.672 0 119.3 0z" transform="rotate(-45 1319.02 3626.937) scale(1.456)" stroke="#acacac" stroke-width=".088" fill="url(#aZ)"/><path d="M2079.7 579.86a4.672 4.672 0 11-9.3 0 4.672 4.672 0 119.3 0z" transform="rotate(-45 1362.114 3644.787) scale(1.456)" stroke="#acacac" stroke-width=".088" fill="url(#aZ)"/><path d="M2079.7 579.86a4.672 4.672 0 11-9.3 0 4.672 4.672 0 119.3 0z" transform="rotate(-45 1405.38 3662.568) scale(1.456)" stroke="#acacac" stroke-width=".088" fill="url(#aZ)"/><path d="M2079.7 579.86a4.672 4.672 0 11-9.3 0 4.672 4.672 0 119.3 0z" transform="rotate(-45 1448.205 3680.732) scale(1.456)" stroke="#acacac" stroke-width=".088" fill="url(#aZ)"/><path d="M2079.7 579.86a4.672 4.672 0 11-9.3 0 4.672 4.672 0 119.3 0z" transform="rotate(135 1252.057 183.87) scale(.92548)" stroke="#acacac" stroke-width=".088" fill="url(#aZ)"/><path d="M2079.7 579.86a4.672 4.672 0 11-9.3 0 4.672 4.672 0 119.3 0z" transform="rotate(135 1247.248 195.48) scale(.92548)" stroke="#acacac" stroke-width=".088" fill="url(#aZ)"/><path d="M2079.7 579.86a4.672 4.672 0 11-9.3 0 4.672 4.672 0 119.3 0z" transform="rotate(135 1245.508 202.369) scale(.92548)" stroke="#acacac" stroke-width=".088" fill="url(#aZ)"/><path d="M2079.7 579.86a4.672 4.672 0 11-9.3 0 4.672 4.672 0 119.3 0z" transform="rotate(135 1240.65 213.953) scale(.92548)" stroke="#acacac" stroke-width=".088" fill="url(#aZ)"/><path d="M2079.7 579.86a4.672 4.672 0 11-9.3 0 4.672 4.672 0 119.3 0z" transform="rotate(135 1238.494 220.434) scale(.92548)" stroke="#acacac" stroke-width=".088" fill="url(#aZ)"/><path d="M2079.7 579.86a4.672 4.672 0 11-9.3 0 4.672 4.672 0 119.3 0z" transform="rotate(135 1233.606 232.093) scale(.92548)" stroke="#acacac" stroke-width=".088" fill="url(#aZ)"/><path d="M2079.7 579.86a4.672 4.672 0 11-9.3 0 4.672 4.672 0 119.3 0z" transform="rotate(135 1231.585 238.667) scale(.92548)" stroke="#acacac" stroke-width=".088" fill="url(#aZ)"/><path d="M2079.7 579.86a4.672 4.672 0 11-9.3 0 4.672 4.672 0 119.3 0z" transform="rotate(135 1226.779 250.272) scale(.92548)" stroke="#acacac" stroke-width=".088" fill="url(#aZ)"/><path d="M2079.7 579.86a4.672 4.672 0 11-9.3 0 4.672 4.672 0 119.3 0z" transform="matrix(-.65441 .65441 -.65441 -.65441 2272 -427.43)" stroke="#acacac" stroke-width=".088" fill="url(#aZ)"/><path d="M2079.7 579.86a4.672 4.672 0 11-9.3 0 4.672 4.672 0 119.3 0z" transform="matrix(-.65441 .65441 -.65441 -.65441 2272 -404.21)" stroke="#acacac" stroke-width=".088" fill="url(#aZ)"/><path d="M2079.7 579.86a4.672 4.672 0 11-9.3 0 4.672 4.672 0 119.3 0z" transform="rotate(135 1217.73 275.228) scale(.92548)" stroke="#acacac" stroke-width=".088" fill="url(#aZ)"/><path d="M2079.7 579.86a4.672 4.672 0 11-9.3 0 4.672 4.672 0 119.3 0z" transform="matrix(-.65441 .65441 -.65441 -.65441 2273.4 -368)" stroke="#acacac" stroke-width=".088" fill="url(#aZ)"/><path filter="url(#ba)" d="M873.04 344.68c-3.79 0-6.84 3.05-6.84 6.84v310.81c0 3.79 3.05 6.82 6.84 6.82h147.86c3.8 0 6.8-3.03 6.8-6.82V351.52c0-3.79-3-6.84-6.8-6.84H873.04z"/><rect rx="6.84" ry="6.84" height="324.47" width="161.51" y="344.83" x="877.91" fill="#fcffd1"/><rect rx="6.84" ry="6.84" height="249.89" width="137.42" y="381.49" x="890.15"/><path d="M632.12 376.66c-.99 0-1.95.2-2.81.56s-1.63.88-2.28 1.53-1.17 1.42-1.53 2.28-.56 1.79-.56 2.78v247.85a7.15 7.15 0 002.09 5.06c.65.65 1.42 1.17 2.28 1.53s1.82.56 2.81.56h129.82a7.15 7.15 0 005.06-2.09c.65-.65 1.2-1.42 1.56-2.28s.56-1.79.56-2.78V383.81c0-.99-.2-1.92-.56-2.78s-.91-1.63-1.56-2.28-1.42-1.17-2.28-1.53-1.79-.56-2.78-.56H632.12z" stroke="#000" stroke-width="1.14" fill="none"/><path filter="url(#ba)" d="M612.75 346.81c-3.79 0-6.84 3.06-6.84 6.85v310.81c0 3.79 3.05 6.81 6.84 6.81h147.84c3.79 0 6.85-3.02 6.85-6.81V353.66c0-3.79-3.06-6.85-6.85-6.85H612.75z"/><path d="M622.75 344.81c-3.79 0-6.84 3.06-6.84 6.85v310.81c0 3.79 3.05 6.81 6.84 6.81h147.84c3.79 0 6.85-3.02 6.85-6.81V351.66c0-3.79-3.06-6.85-6.85-6.85H622.75z" fill="#fcffd1"/><path d="M2079.7 579.86a4.672 4.672 0 11-9.3 0 4.672 4.672 0 119.3 0z" transform="matrix(1.14 0 0 1.14 -1669.4 -296.37)" stroke="#acacac" stroke-width=".088" fill="url(#bb)"/><path stroke="#000" stroke-width="1.14" d="M632.12 376.66h129.82a7.15 7.15 0 015.06 2.09c.65.65 1.2 1.42 1.56 2.28s.56 1.79.56 2.78v247.85c0 .99-.2 1.92-.56 2.78s-.91 1.63-1.56 2.28-1.42 1.17-2.28 1.53-1.79.56-2.78.56H632.12c-.99 0-1.95-.2-2.81-.56s-1.63-.88-2.28-1.53-1.17-1.42-1.53-2.28-.56-1.79-.56-2.78V383.81a7.15 7.15 0 012.09-5.06c.65-.65 1.42-1.17 2.28-1.53s1.82-.56 2.81-.56z"/><rect rx="31.921" ry="31.921" height="241.69" width="63.842" y="386.07" x="895.04" fill="#fcffd1"/><rect fill-opacity=".977" rx="31.921" ry="31.921" height="241.69" width="63.842" y="386.07" x="958.88" fill="#212121"/><rect fill-opacity=".977" rx="33.49" ry="33.49" height="253.56" width="66.979" y="381.46" x="630.07" fill="#212121"/><rect rx="33.49" ry="33.49" height="253.56" width="66.979" y="381.46" x="697.05" fill="#fcffd1"/><g filter="url(#bc)" transform="matrix(1.0316 0 0 1.0402 -292.62 -18.303)"><path d="M934.814 424.52a9.102 9.102 0 11-18.126 0 9.102 9.102 0 1118.126 0zm0 32.31a9.102 9.102 0 11-18.126 0 9.102 9.102 0 1118.126 0zm65.5 0a9.102 9.102 0 11-18.126 0 9.102 9.102 0 1118.126 0zm-65.5 36.11a9.102 9.102 0 11-18.126 0 9.102 9.102 0 1118.126 0zm65.5 0a9.102 9.102 0 11-18.126 0 9.102 9.102 0 1118.126 0zm-65.5 32.32a9.102 9.102 0 11-18.126 0 9.102 9.102 0 1118.126 0zm65.5 0a9.102 9.102 0 11-18.126 0 9.102 9.102 0 1118.126 0zm-65.5 34.67a9.102 9.102 0 11-18.126 0 9.102 9.102 0 1118.126 0zm65.5 0a9.102 9.102 0 11-18.126 0 9.102 9.102 0 1118.126 0zm-65.5 32.32a9.102 9.102 0 11-18.126 0 9.102 9.102 0 1118.126 0zm65.5 0a9.102 9.102 0 11-18.126 0 9.102 9.102 0 1118.126 0zm0-167.73a9.102 9.102 0 11-18.126 0 9.102 9.102 0 1118.126 0z"/></g><g filter="url(#bc)" transform="translate(-2)"><path d="M934.814 424.52a9.102 9.102 0 11-18.126 0 9.102 9.102 0 1118.126 0zm0 32.31a9.102 9.102 0 11-18.126 0 9.102 9.102 0 1118.126 0zm65.5 0a9.102 9.102 0 11-18.126 0 9.102 9.102 0 1118.126 0zm-65.5 36.11a9.102 9.102 0 11-18.126 0 9.102 9.102 0 1118.126 0zm65.5 0a9.102 9.102 0 11-18.126 0 9.102 9.102 0 1118.126 0zm-65.5 32.32a9.102 9.102 0 11-18.126 0 9.102 9.102 0 1118.126 0zm65.5 0a9.102 9.102 0 11-18.126 0 9.102 9.102 0 1118.126 0zm-65.5 34.67a9.102 9.102 0 11-18.126 0 9.102 9.102 0 1118.126 0zm65.5 0a9.102 9.102 0 11-18.126 0 9.102 9.102 0 1118.126 0zm-65.5 32.32a9.102 9.102 0 11-18.126 0 9.102 9.102 0 1118.126 0zm65.5 0a9.102 9.102 0 11-18.126 0 9.102 9.102 0 1118.126 0zm0-167.73a9.102 9.102 0 11-18.126 0 9.102 9.102 0 1118.126 0z"/></g><path d="M2055.1 632.36a7.984 7.984 0 11-15.9 0 7.984 7.984 0 1115.9 0z" transform="matrix(1.14 0 0 1.14 -1408 -296.37)" fill="url(#bd)"/><path d="M2055.1 632.36a7.984 7.984 0 11-15.9 0 7.984 7.984 0 1115.9 0z" transform="matrix(1.14 0 0 1.14 -1408 -264.06)" fill="url(#bd)"/><path d="M2055.1 632.36a7.984 7.984 0 11-15.9 0 7.984 7.984 0 1115.9 0z" transform="matrix(1.14 0 0 1.14 -1342.5 -264.06)" fill="url(#be)"/><path d="M2055.1 632.36a7.984 7.984 0 11-15.9 0 7.984 7.984 0 1115.9 0z" transform="matrix(1.14 0 0 1.14 -1408 -227.95)" fill="url(#bd)"/><path d="M2055.1 632.36a7.984 7.984 0 11-15.9 0 7.984 7.984 0 1115.9 0z" transform="matrix(1.14 0 0 1.14 -1342.5 -227.95)" fill="url(#be)"/><path d="M2055.1 632.36a7.984 7.984 0 11-15.9 0 7.984 7.984 0 1115.9 0z" transform="matrix(1.14 0 0 1.14 -1408 -195.63)" fill="url(#bd)"/><path d="M2055.1 632.36a7.984 7.984 0 11-15.9 0 7.984 7.984 0 1115.9 0z" transform="matrix(1.14 0 0 1.14 -1342.5 -195.63)" fill="url(#be)"/><path d="M2055.1 632.36a7.984 7.984 0 11-15.9 0 7.984 7.984 0 1115.9 0z" transform="matrix(1.14 0 0 1.14 -1408 -160.96)" fill="url(#bd)"/><path d="M2055.1 632.36a7.984 7.984 0 11-15.9 0 7.984 7.984 0 1115.9 0z" transform="matrix(1.14 0 0 1.14 -1342.5 -160.96)" fill="url(#be)"/><path d="M2055.1 632.36a7.984 7.984 0 11-15.9 0 7.984 7.984 0 1115.9 0z" transform="matrix(1.14 0 0 1.14 -1408 -128.64)" fill="url(#bd)"/><path d="M2055.1 632.36a7.984 7.984 0 11-15.9 0 7.984 7.984 0 1115.9 0z" transform="matrix(1.14 0 0 1.14 -1342.5 -128.64)" fill="url(#be)"/><path d="M2055.1 632.36a7.984 7.984 0 11-15.9 0 7.984 7.984 0 1115.9 0z" transform="matrix(1.14 0 0 1.14 -1342.5 -296.37)" fill="url(#be)"/><path d="M2055.1 632.36a7.984 7.984 0 11-15.9 0 7.984 7.984 0 1115.9 0z" transform="translate(-1786.2 -334.52) scale(1.1961)" fill="url(#bd)"/><path d="M2055.1 632.36a7.984 7.984 0 11-15.9 0 7.984 7.984 0 1115.9 0z" transform="translate(-1717.4 -334.52) scale(1.1961)" fill="url(#bd)"/><path d="M2055.1 632.36a7.984 7.984 0 11-15.9 0 7.984 7.984 0 1115.9 0z" transform="translate(-1786.2 -300.61) scale(1.1961)" fill="url(#bd)"/><path d="M2055.1 632.36a7.984 7.984 0 11-15.9 0 7.984 7.984 0 1115.9 0z" transform="translate(-1717.4 -300.61) scale(1.1961)" fill="url(#bd)"/><path d="M2055.1 632.36a7.984 7.984 0 11-15.9 0 7.984 7.984 0 1115.9 0z" transform="translate(-1786.2 -262.73) scale(1.1961)" fill="url(#bd)"/><path d="M2055.1 632.36a7.984 7.984 0 11-15.9 0 7.984 7.984 0 1115.9 0z" transform="translate(-1717.4 -262.73) scale(1.1961)" fill="url(#bd)"/><path d="M2055.1 632.36a7.984 7.984 0 11-15.9 0 7.984 7.984 0 1115.9 0z" transform="translate(-1717.4 -228.82) scale(1.1961)" fill="url(#bd)"/><path d="M2055.1 632.36a7.984 7.984 0 11-15.9 0 7.984 7.984 0 1115.9 0z" transform="translate(-1786.2 -192.45) scale(1.1961)" fill="url(#bd)"/><path d="M2055.1 632.36a7.984 7.984 0 11-15.9 0 7.984 7.984 0 1115.9 0z" transform="translate(-1717.4 -192.45) scale(1.1961)" fill="url(#bd)"/><path d="M2055.1 632.36a7.984 7.984 0 11-15.9 0 7.984 7.984 0 1115.9 0z" transform="translate(-1786.2 -158.55) scale(1.1961)" fill="url(#bd)"/><path d="M2055.1 632.36a7.984 7.984 0 11-15.9 0 7.984 7.984 0 1115.9 0z" transform="translate(-1717.4 -158.55) scale(1.1961)" fill="url(#bd)"/><path d="M2055.1 632.36a7.984 7.984 0 11-15.9 0 7.984 7.984 0 1115.9 0z" transform="translate(-1786.2 -228.82) scale(1.1961)" fill="url(#bd)"/><path d="M2079.7 579.86a4.672 4.672 0 11-9.3 0 4.672 4.672 0 119.3 0z" transform="matrix(.9714 .59673 -.59673 .9714 -711.43 -1151.8)" stroke="#acacac" stroke-width=".088" fill="url(#bb)"/><path d="M2079.7 579.86a4.672 4.672 0 11-9.3 0 4.672 4.672 0 119.3 0z" transform="matrix(.9873 -.57002 .57002 .9873 -1490.8 1268.2)" stroke="#acacac" stroke-width=".088" fill="url(#bb)"/><path d="M2079.7 579.86a4.672 4.672 0 11-9.3 0 4.672 4.672 0 119.3 0z" transform="rotate(45 1701.605 -953.192) scale(1.14004)" stroke="#acacac" stroke-width=".088" fill="url(#bb)"/><path d="M2079.7 579.86a4.672 4.672 0 11-9.3 0 4.672 4.672 0 119.3 0z" transform="rotate(68.705 1878.739 -516.683) scale(1.14004)" stroke="#acacac" stroke-width=".088" fill="url(#bb)"/><path d="M2079.7 579.86a4.672 4.672 0 11-9.3 0 4.672 4.672 0 119.3 0z" transform="rotate(-45 1259.98 2290.8) scale(1.14004)" stroke="#acacac" stroke-width=".088" fill="url(#bb)"/><path d="M2079.7 579.86a4.672 4.672 0 11-9.3 0 4.672 4.672 0 119.3 0z" transform="matrix(.9873 .57002 -.57002 .9873 -687.45 -1398.8)" stroke="#acacac" stroke-width=".088" fill="url(#bb)"/><path d="M2079.7 579.86a4.672 4.672 0 11-9.3 0 4.672 4.672 0 119.3 0z" transform="rotate(-45 1517.183 2670.562) scale(1.14004)" stroke="#acacac" stroke-width=".088" fill="url(#bb)"/><path d="M2079.7 579.86a4.672 4.672 0 11-9.3 0 4.672 4.672 0 119.3 0z" transform="rotate(174.919 1566.743 624.011) scale(1.14008)" stroke="#acacac" stroke-width=".088" fill="url(#bb)"/><path d="M2079.7 579.86a4.672 4.672 0 11-9.3 0 4.672 4.672 0 119.3 0z" transform="matrix(1.0913 .32987 -.32987 1.0913 -1446.7 -659.44)" stroke="#acacac" stroke-width=".088" fill="url(#bb)"/><path d="M2079.7 579.86a4.672 4.672 0 11-9.3 0 4.672 4.672 0 119.3 0z" transform="rotate(8.901 3523.364 -9748.732) scale(1.14003)" stroke="#acacac" stroke-width=".088" fill="url(#bb)"/><path d="M2079.7 579.86a4.672 4.672 0 11-9.3 0 4.672 4.672 0 119.3 0z" transform="rotate(76.408 1690.004 -595.472) scale(1.14003)" stroke="#acacac" stroke-width=".088" fill="url(#bb)"/><path d="M2079.7 579.86a4.672 4.672 0 11-9.3 0 4.672 4.672 0 119.3 0z" transform="rotate(8.902 3924.417 -18545.538) scale(1.77812)" stroke="#acacac" stroke-width=".088" fill="url(#bb)"/><path d="M2079.7 579.86a4.672 4.672 0 11-9.3 0 4.672 4.672 0 119.3 0z" transform="rotate(-39.688 1561.494 5747.043) scale(1.7781)" stroke="#acacac" stroke-width=".088" fill="url(#bb)"/><path d="M2079.7 579.86a4.672 4.672 0 11-9.3 0 4.672 4.672 0 119.3 0z" transform="matrix(-.43236 1.2866 -1.2866 -.43236 2273.7 -1660.1)" stroke="#acacac" stroke-width=".088" fill="url(#bb)"/><path d="M2079.7 579.86a4.672 4.672 0 11-9.3 0 4.672 4.672 0 119.3 0z" transform="matrix(.94645 .9729 -.9729 .94645 -903.24 -1808.7)" stroke="#acacac" stroke-width=".088" fill="url(#bb)"/><path d="M2079.7 579.86a4.672 4.672 0 11-9.3 0 4.672 4.672 0 119.3 0z" transform="rotate(-45 1259.98 2290.8) scale(1.14004)" stroke="#acacac" stroke-width=".088" fill="url(#aZ)"/><path d="M2079.7 579.86a4.672 4.672 0 11-9.3 0 4.672 4.672 0 119.3 0z" transform="rotate(-45 1562.831 2588.354) scale(1.14004)" stroke="#acacac" stroke-width=".088" fill="url(#aZ)"/><path d="M2079.7 579.86a4.672 4.672 0 11-9.3 0 4.672 4.672 0 119.3 0z" transform="rotate(-45 1492.181 2758.918) scale(1.14004)" stroke="#acacac" stroke-width=".088" fill="url(#aZ)"/><path d="M2079.7 579.86a4.672 4.672 0 11-9.3 0 4.672 4.672 0 119.3 0z" transform="rotate(-45 1688.816 3405.77) scale(1.35517)" stroke="#acacac" stroke-width=".088" fill="url(#aZ)"/><path d="M2079.7 579.86a4.672 4.672 0 11-9.3 0 4.672 4.672 0 119.3 0z" transform="rotate(-45 1623.181 2442.656) scale(1.14004)" stroke="#acacac" stroke-width=".088" fill="url(#aZ)"/><path d="M2079.7 579.86a4.672 4.672 0 11-9.3 0 4.672 4.672 0 119.3 0z" transform="rotate(-45 1648.183 2354.3) scale(1.14004)" stroke="#acacac" stroke-width=".088" fill="url(#aZ)"/><path d="M2079.7 579.86a4.672 4.672 0 11-9.3 0 4.672 4.672 0 119.3 0z" transform="rotate(-45 1693.831 2272.092) scale(1.14004)" stroke="#acacac" stroke-width=".088" fill="url(#aZ)"/><path d="M2079.7 579.86a4.672 4.672 0 11-9.3 0 4.672 4.672 0 119.3 0z" transform="rotate(-45 1128.98 2607.061) scale(1.14004)" stroke="#acacac" stroke-width=".088" fill="url(#aZ)"/><path d="M2079.7 579.86a4.672 4.672 0 11-9.3 0 4.672 4.672 0 119.3 0z" transform="rotate(-45 1173.158 2528.062) scale(1.14004)" stroke="#acacac" stroke-width=".088" fill="url(#aZ)"/><path d="M2079.7 579.86a4.672 4.672 0 11-9.3 0 4.672 4.672 0 119.3 0z" transform="rotate(-45 1199.63 2436.497) scale(1.14004)" stroke="#acacac" stroke-width=".088" fill="url(#aZ)"/><path d="M2079.7 579.86a4.672 4.672 0 11-9.3 0 4.672 4.672 0 119.3 0z" transform="rotate(-45 1304.158 2211.8) scale(1.14004)" stroke="#acacac" stroke-width=".088" fill="url(#aZ)"/><path d="M2079.7 579.86a4.672 4.672 0 11-9.3 0 4.672 4.672 0 119.3 0z" transform="rotate(-45 1330.63 2120.235) scale(1.14004)" stroke="#acacac" stroke-width=".088" fill="url(#aZ)"/><path d="M2079.7 579.86a4.672 4.672 0 11-9.3 0 4.672 4.672 0 119.3 0z" transform="rotate(-45 1848.003 4549.112) scale(1.7784)" stroke="#acacac" stroke-width=".088" fill="url(#aZ)"/><path d="M2079.7 579.86a4.672 4.672 0 11-9.3 0 4.672 4.672 0 119.3 0z" transform="rotate(-45 1621.866 3567.4) scale(1.35517)" stroke="#acacac" stroke-width=".088" fill="url(#aZ)"/><path d="M2079.7 579.86a4.672 4.672 0 11-9.3 0 4.672 4.672 0 119.3 0z" transform="rotate(-45 1610.249 5123.1) scale(1.7784)" stroke="#acacac" stroke-width=".088" fill="url(#aZ)"/><path fill="url(#bf)" d="M2792.4 656.34c5.2-2.38 10.2-4.76 20.1-3.72l-1.6-35.82s-26.2 5.34-28.2 5.41l9.7 34.13" transform="translate(0 -2)"/><path d="M4249.3 886.95a29.38 17.425 0 11-58.8 0 29.38 17.425 0 1158.8 0z" transform="matrix(.86683 -.12885 .05443 1.1566 -901.86 188.68)" fill="url(#bg)"/><path d="M2717.7 368.81c-11.5.15-20.5 6.79-21.2 16.31v.07c-.1 2.68.7 5.86 1.6 8.28l46.2 8.22c.4-.52.7-1.08 1-1.63.7-1.6 1.3-3.58 1.5-4.97 1.3-11.06-8.9-22.52-22.8-25.59-1.5-.34-3-.54-4.5-.66-.6-.02-1.2-.04-1.8-.03z" fill="url(#bh)"/><path fill="url(#bf)" d="M2792.4 656.34c5.2-2.38 10.2-4.76 20.1-3.72l-1.6-35.82s-26.2 5.34-28.2 5.41l9.7 34.13" transform="translate(254 -44)"/><path d="M4249.3 886.95a29.38 17.425 0 11-58.8 0 29.38 17.425 0 1158.8 0z" transform="matrix(.86683 -.12885 .05443 1.1566 -647.86 146.68)" fill="url(#bg)"/><path fill="url(#bf)" d="M2792.4 656.34c5.2-2.38 10.2-4.76 20.1-3.72l-1.6-35.82s-26.2 5.34-28.2 5.41l9.7 34.13" transform="translate(128.51 -22.266)"/><path d="M4249.3 886.95a29.38 17.425 0 11-58.8 0 29.38 17.425 0 1158.8 0z" transform="matrix(.86683 -.12885 .05443 1.1566 -773.35 168.414)" fill="url(#bg)"/><path d="M2972.5 413.86c-11.5.15-20.6 6.79-21.3 16.31v.07c0 2.68.7 5.86 1.7 8.28l46.2 8.22c.4-.52.7-1.08 1-1.63.7-1.6 1.3-3.58 1.5-4.97 1.3-11.06-8.9-22.52-22.8-25.59-1.5-.34-3.1-.54-4.5-.66-.6-.02-1.2-.04-1.8-.03z" fill="url(#bi)"/><path d="M2845.4 391.38c-11.5.16-20.6 6.79-21.3 16.32v.06c0 2.69.7 5.86 1.7 8.28l46.2 8.22c.4-.51.7-1.08 1-1.63.7-1.6 1.3-3.58 1.5-4.97 1.3-11.06-8.9-22.52-22.8-25.59-1.5-.34-3.1-.54-4.5-.66-.6-.02-1.2-.03-1.8-.03z" fill="url(#bj)"/><path d="M2541.2 442.81c5.5-.37 12.2-2.15 17-3.02 43.6-7.82 60.6-33.27 83.9-56.28l388.9 69.12c103.8 19.73 146.7 103.91 89.2 114.36l-415.9 66.96c-17.8-10.25-76.4-54.13-146.1-59.16-6.4-.47-10.3-.44-17-.18v-131.8z" stroke="#f6deae" fill="none"/><path filter="url(#bk)" d="M2672.5 428.68c-13.2-.6-19.5 19.53-8.3 26.6 9.9 8.81 27.7-3.03 23.2-15.6-1.6-6.48-8.1-11.46-14.9-11z" transform="translate(131.63 23.411)"/><path d="M4072.6 625.03c-13.2-.6-19.5 19.53-8.3 26.59 9.9 8.82 27.7-3.03 23.2-15.59-1.5-6.48-8.1-11.47-14.9-11z" transform="translate(-1262.87 -172.939)" filter="url(#bl)" stroke="#9e9e9e" stroke-width="3" fill="url(#bm)"/><path stroke="#f6deae" d="M2528.7 442.35l-222.2-3.22-100.8-1.46-91.9-1.33-88.9-1.29-85.6-1.24-78.6-1.14-72.4-1.05-69.7-1.01-67.5-.97-60.8-.88-59.6-.87-53.8-.77-53.3-.78-50.8-.73-47.2-.68-43.7-.64-41.2-.59-37.8-.55-38.4-.56-34.9-.51-34.6-.49-33.4-.49v178.18l1467.1-23.98V442.35z"/><path d="M2558.2 463.59v86.31l160.4-19.97c41.6-3.15 37.8-42.24 1.7-46.16l-162.1-20.18z" fill="#f4f3d7" fill-opacity=".955"/><path d="M2528.7 442.34l12.5.47m-12.5 132.49l12.5-.69" stroke="#f6deae" fill="#ffeec9"/><path stroke-linejoin="round" d="M2558.2 439.58v135.27m0-135.26c-7.9 2.42-16 3.51-24.4 2.94v132.49c8.1-.54 16.3-1.1 24.4-.17" stroke="#f3f0d3" stroke-linecap="round" fill="#fff"/><path fill="none" d="M2528.3 508.83v-66.08l2.5.09 2.5.09v131.64l-1.7.17c-1 .1-2.1.17-2.5.18h-.8v-66.09z"/><path opacity=".995" d="M2524.5 508.77v-66.16h3.9v132.31h-3.9v-66.15zm-.3 66.14v-132.3" fill="url(#bn)"/><path stroke="url(#bo)" d="M2559.3 463.59v86.31"/><path d="M2079.7 579.86a4.672 4.672 0 11-9.3 0 4.672 4.672 0 119.3 0z" transform="rotate(31.562 2069.334 2112.793) scale(.78963)" stroke="#acacac" stroke-width=".088" fill="url(#bb)"/><path d="M2079.7 579.86a4.672 4.672 0 11-9.3 0 4.672 4.672 0 119.3 0z" transform="matrix(.57336 -.54292 .54292 .57336 1063.9 1332.3)" stroke="#acacac" stroke-width=".088" fill="url(#bb)"/><path d="M2079.7 579.86a4.672 4.672 0 11-9.3 0 4.672 4.672 0 119.3 0z" transform="matrix(-.3739 .69549 -.69549 -.3739 3912.8 -719.21)" stroke="#acacac" stroke-width=".088" fill="url(#bb)"/><path opacity=".215" filter="url(#bp)" d="M2560.4 447.84c-.3-4.49.9-3.55-.5-8.21 40.7-11.67 60.6-33.28 83.9-56.29l388.9 69.13c103.8 19.73 146.7 103.92 89.2 114.37L2706 633.78c-17.8-10.25-76.4-54.13-146.1-59.15-1.1-2.25-9.7-7.76-9-8.29 56.4 1.11 108.6 27.26 154.5 57.91 9.9 2.37 19.5-3.05 29.4-3.25 131.5-21.63 263.4-41.2 394.6-64.47 11.7-5.05 12.8-21.44 6-30.9-12.8-26.5-39.6-42.62-65.7-53.88-44.7-17.24-93.5-19.07-140-29.44l-283.2-50.34-.7.75v.03c-22.5 25.64-50.5 50.54-85.4 55.09" fill-opacity=".813"/><path filter="url(#bk)" d="M2672.5 428.68c-13.2-.6-19.5 19.53-8.3 26.6 9.9 8.81 27.7-3.03 23.2-15.6-1.6-6.48-8.1-11.46-14.9-11z" transform="translate(346.92 86.556)"/><path d="M4072.6 625.03c-13.2-.6-19.5 19.53-8.3 26.59 9.9 8.82 27.7-3.03 23.2-15.59-1.5-6.48-8.1-11.47-14.9-11z" transform="translate(-1047.58 -109.794)" filter="url(#bl)" stroke="#9e9e9e" stroke-width="3" fill="url(#bm)"/><path filter="url(#bk)" d="M2672.5 428.68c-13.2-.6-19.5 19.53-8.3 26.6 9.9 8.81 27.7-3.03 23.2-15.6-1.6-6.48-8.1-11.46-14.9-11z" transform="translate(259.1 43.165)"/><path d="M4072.6 625.03c-13.2-.6-19.5 19.53-8.3 26.59 9.9 8.82 27.7-3.03 23.2-15.59-1.5-6.48-8.1-11.47-14.9-11z" transform="translate(-1135.4 -153.185)" filter="url(#bl)" stroke="#9e9e9e" stroke-width="3" fill="url(#bm)"/><path filter="url(#bk)" d="M2672.5 428.68c-13.2-.6-19.5 19.53-8.3 26.6 9.9 8.81 27.7-3.03 23.2-15.6-1.6-6.48-8.1-11.46-14.9-11z" transform="translate(93.002 127.83)"/><path d="M4072.6 625.03c-13.2-.6-19.5 19.53-8.3 26.59 9.9 8.82 27.7-3.03 23.2-15.59-1.5-6.48-8.1-11.47-14.9-11z" transform="translate(-1301.498 -68.52)" filter="url(#bl)" stroke="#9e9e9e" stroke-width="3" fill="url(#bm)"/><path filter="url(#bk)" d="M2672.5 428.68c-13.2-.6-19.5 19.53-8.3 26.6 9.9 8.81 27.7-3.03 23.2-15.6-1.6-6.48-8.1-11.46-14.9-11z" transform="translate(220.36 106.65)"/><path d="M4072.6 625.03c-13.2-.6-19.5 19.53-8.3 26.59 9.9 8.82 27.7-3.03 23.2-15.59-1.5-6.48-8.1-11.47-14.9-11z" transform="translate(-1174.14 -89.7)" filter="url(#bl)" stroke="#9e9e9e" stroke-width="3" fill="url(#bm)"/><path filter="url(#bk)" d="M2672.5 428.68c-13.2-.6-19.5 19.53-8.3 26.6 9.9 8.81 27.7-3.03 23.2-15.6-1.6-6.48-8.1-11.46-14.9-11z"/><path d="M4072.6 625.03c-13.2-.6-19.5 19.53-8.3 26.59 9.9 8.82 27.7-3.03 23.2-15.59-1.5-6.48-8.1-11.47-14.9-11z" transform="translate(-1394.5 -196.35)" filter="url(#bl)" stroke="#9e9e9e" stroke-width="3" fill="url(#bm)"/><path d="M2216.2 445.92l77.8.34v128.11c-14.5-55.19-38.5-100.08-77.8-128.45zm-486.8-4.36l47.9.3v112.49c-8.9-48.47-23.7-87.88-47.9-112.79zm141.7 1.27l57 .32v117.08c-10.6-50.44-28.2-91.46-57-117.4zm164.9 1.49l66.5.33v122.31c-12.4-52.7-33-95.55-66.5-122.64zm-497.9-4.45l42.2.29v106.32c-7.9-45.81-20.9-83.06-42.2-106.61zm-156-1.44l31.8.28v101.3c-5.9-43.65-15.8-79.14-31.8-101.58zm-92.9-.85l28 .26v98.23c-5.2-42.32-13.9-76.74-28-98.49zm-79.7-.73l23.7.26v95.64c-4.4-41.2-11.7-74.71-23.7-95.9zm-73.1-.64l21.9.26v93.32c-4.1-40.21-10.8-72.91-21.9-93.58z" fill="#fcfff2"/><path d="M2414.6 440.69v136.48" stroke="url(#bq)" stroke-width="8.8" fill="url(#br)"/><path d="M1095.2 421.59v177.14" stroke="url(#bs)" stroke-width="8.8" fill="url(#bt)"/><path d="M1130.1 598.16V422.09" stroke="url(#bu)" stroke-width="8.8" fill="url(#bv)"/><path d="M1202.6 423.14v173.84" stroke="url(#bw)" stroke-width="8.8" fill="url(#bx)"/><path d="M1164.8 422.6v174.99" stroke="url(#by)" stroke-width="8.8" fill="url(#bz)"/><path d="M1240.3 423.69v172.67" stroke="url(#bA)" stroke-width="8.8" fill="url(#bB)"/><path d="M1281.6 424.29v171.39" stroke="url(#bC)" stroke-width="8.8" fill="url(#bD)"/><path d="M1325.8 424.92v170.04" stroke="url(#bE)" stroke-width="8.8" fill="url(#bF)"/><path d="M1373.2 425.63v168.54" stroke="url(#bG)" stroke-width="8.8" fill="url(#bH)"/><path d="M1423.7 426.34v167.02" stroke="url(#bI)" stroke-width="8.8" fill="url(#bJ)"/><path d="M1477.4 427.11V592.5" stroke="url(#bK)" stroke-width="8.8" fill="url(#bL)"/><path d="M1530.7 427.89v163.72" stroke="url(#bM)" stroke-width="8.8" fill="url(#bN)"/><path d="M1590.8 428.76v161.88" stroke="url(#bO)" stroke-width="8.8" fill="url(#bP)"/><path d="M1652 429.64v160" stroke="url(#bQ)" stroke-width="8.8" fill="url(#bR)"/><path d="M1718.3 430.61v157.93" stroke="url(#bS)" stroke-width="8.8" fill="url(#bT)"/><path d="M1788.4 431.62V587.4" stroke="url(#bU)" stroke-width="8.8" fill="url(#bV)"/><path d="M1860.7 432.67v153.56" stroke="url(#bW)" stroke-width="8.8" fill="url(#bX)"/><path d="M1939.8 433.81v151.12" stroke="url(#bY)" stroke-width="8.8" fill="url(#bZ)"/><path d="M2025.4 435.05v148.48" stroke="url(#ca)" stroke-width="8.8" fill="url(#cb)"/><path d="M2114.2 436.34v145.74" stroke="url(#cc)" stroke-width="8.8" fill="url(#cd)"/><path d="M2205.8 437.66v142.93" stroke="url(#ce)" stroke-width="8.8" fill="url(#cf)"/><path d="M2306.7 439.12v139.81" stroke="url(#cg)" stroke-width="8.8" fill="url(#ch)"/><g opacity=".644" transform="matrix(.87311 0 0 1.0005 349.63 -182.93)" filter="url(#ci)" stroke="#000" fill="none"><path stroke-width="3.5" d="M2526.5 631.72l159 9.18"/><path stroke-width="3.1" d="M2531.9 655.41l283.5 8.91"/><path stroke-width="2.7" d="M2531.9 679.41l411.7 4.69"/><path stroke-width="2" d="M2531.9 703.41l499.8-5.56"/><path stroke-width="1.5" d="M2531.9 727.41l373.2-9.47"/><path d="M2531.9 751.41l245.9-12.28"/></g><path d="M2651.4 456.71l27.5 1.59" stroke="url(#cj)" stroke-width="3.5" fill="none"/><path d="M493.83 418.87l2026.1 30.25 131.5 7.59" stroke="#9e9e9e" stroke-width="3.5" fill="none"/><path d="M495.07 454.84l2030.2 17.97 283.5 8.91" stroke="#9e9e9e" stroke-width="3.1" fill="none"/><path d="M496.26 490.65c675.34 2.49 1353.6 3.79 2029 6.16l411.7 4.69" stroke="#9e9e9e" stroke-width="2.7" fill="none"/><path d="M497.35 526.65l2028-5.84 499.6-5.56" stroke="#9e9e9e" stroke-width="2" fill="none"/><path d="M498.18 562.66l2027.1-17.85 373.2-9.47" stroke="#9e9e9e" stroke-width="1.5" fill="none"/><path d="M499.2 599.22l2026.1-30.41 245.8-12.28" stroke="#9e9e9e" fill="none"/></g></svg>