<?xml version="1.0" encoding="UTF-8"?>
<svg xmlns="http://www.w3.org/2000/svg" xmlns:xlink="http://www.w3.org/1999/xlink" width="45pt" height="45pt" viewBox="0 0 45 45" version="1.1">
<g id="surface1">
<path style=" stroke:none;fill-rule:nonzero;fill:rgb(88.627451%,37.254902%,24.705882%);fill-opacity:1;" d="M 45 22.5 C 45 34.925781 34.925781 45 22.5 45 C 10.074219 45 0 34.925781 0 22.5 C 0 10.074219 10.074219 0 22.5 0 C 34.925781 0 45 10.074219 45 22.5 Z M 45 22.5 "/>
<path style=" stroke:none;fill-rule:nonzero;fill:rgb(63.529412%,28.235294%,16.470588%);fill-opacity:1;" d="M 34.6875 10.238281 C 34.304688 9.859375 33.910156 9.5 33.5 9.160156 L 26.128906 16.53125 C 25.953125 16.707031 25.714844 16.800781 25.46875 16.792969 C 25.222656 16.785156 24.988281 16.675781 24.828125 16.488281 C 24.585938 16.210938 24.492188 15.839844 24.5625 15.484375 C 24.777344 15.070312 24.90625 14.664062 24.941406 14.292969 L 24.941406 14.289062 C 24.988281 13.804688 24.878906 13.386719 24.59375 13.097656 C 23.847656 12.355469 22.191406 12.804688 20.890625 14.105469 C 20.261719 14.734375 19.832031 15.445312 19.640625 16.097656 L 19.636719 16.097656 L 19.636719 16.109375 C 19.578125 16.3125 19.539062 16.511719 19.527344 16.699219 L 19.503906 16.820312 C 19.25 18.210938 17.933594 19.140625 16.539062 18.917969 C 11.351562 18.085938 9.183594 20.945312 8.625 21.503906 C 5.835938 24.292969 6.230469 30.507812 10.285156 34.640625 C 10.285156 34.640625 10.292969 34.652344 10.308594 34.667969 L 20.558594 44.917969 C 21.199219 44.96875 21.84375 45 22.5 45 C 34.925781 45 45 34.925781 45 22.5 C 45 21.8125 44.96875 21.132812 44.90625 20.457031 Z M 34.6875 10.238281 "/>
<path style=" stroke:none;fill-rule:nonzero;fill:rgb(100%,100%,100%);fill-opacity:1;" d="M 20.730469 21.988281 L 23.308594 24.566406 L 22.246094 25.625 L 19.667969 23.050781 Z M 20.730469 21.988281 "/>
<path style=" stroke:none;fill-rule:nonzero;fill:rgb(100%,100%,100%);fill-opacity:1;" d="M 24.472656 18.246094 L 27.046875 20.824219 L 25.988281 21.886719 L 23.410156 19.308594 Z M 24.472656 18.246094 "/>
<path style=" stroke:none;fill-rule:nonzero;fill:rgb(100%,100%,100%);fill-opacity:1;" d="M 25.46875 16.792969 C 25.222656 16.785156 24.988281 16.675781 24.828125 16.488281 C 24.585938 16.210938 24.492188 15.839844 24.5625 15.480469 C 24.777344 15.070312 24.90625 14.664062 24.941406 14.292969 L 24.941406 14.289062 C 24.988281 13.804688 24.878906 13.386719 24.59375 13.097656 C 23.847656 12.355469 22.191406 12.804688 20.890625 14.105469 C 20.261719 14.734375 19.832031 15.445312 19.640625 16.097656 L 19.636719 16.097656 L 19.636719 16.109375 C 19.578125 16.3125 19.539062 16.511719 19.527344 16.699219 L 19.503906 16.820312 C 19.25 18.210938 17.933594 19.140625 16.539062 18.917969 C 11.351562 18.085938 9.183594 20.945312 8.625 21.503906 C 5.835938 24.292969 6.230469 30.507812 10.285156 34.640625 C 10.285156 34.640625 10.359375 34.71875 10.359375 34.71875 L 10.359375 34.714844 C 14.492188 38.769531 20.707031 39.164062 23.496094 36.375 C 24.054688 35.816406 26.917969 33.648438 26.085938 28.460938 C 25.859375 27.066406 26.789062 25.75 28.179688 25.496094 L 28.300781 25.472656 C 28.488281 25.460938 28.6875 25.425781 28.890625 25.363281 L 28.902344 25.363281 L 28.902344 25.359375 C 29.554688 25.167969 30.265625 24.738281 30.894531 24.113281 C 32.195312 22.808594 32.644531 21.152344 31.902344 20.40625 C 31.617188 20.121094 31.195312 20.011719 30.710938 20.058594 L 30.707031 20.058594 C 30.335938 20.097656 29.929688 20.222656 29.519531 20.4375 C 29.164062 20.511719 28.789062 20.414062 28.511719 20.175781 C 28.328125 20.011719 28.214844 19.78125 28.207031 19.53125 C 28.199219 19.285156 28.292969 19.046875 28.46875 18.871094 L 35.839844 11.5 C 35.488281 11.078125 35.117188 10.667969 34.726562 10.277344 C 34.332031 9.882812 33.921875 9.511719 33.5 9.160156 L 26.128906 16.53125 C 25.953125 16.707031 25.714844 16.800781 25.46875 16.792969 Z M 14.703125 22.679688 C 14.703125 22.679688 13.308594 22.882812 12.292969 23.355469 C 11.273438 23.828125 10.699219 23.675781 10.585938 23.464844 C 10.414062 23.292969 10.414062 23.015625 10.585938 22.847656 C 10.753906 22.675781 11.03125 22.675781 11.203125 22.847656 C 11.300781 22.945312 11.339844 23.078125 11.324219 23.207031 C 11.671875 23.246094 12.570312 23.09375 14.324219 21.320312 C 14.324219 21.320312 15.597656 21.355469 16.523438 20.902344 C 17.28125 20.53125 17.808594 20.535156 18.132812 20.65625 C 18.210938 20.6875 18.277344 20.730469 18.332031 20.785156 C 18.457031 20.910156 18.457031 21.113281 18.332031 21.238281 C 18.207031 21.363281 18.003906 21.363281 17.875 21.238281 C 17.816406 21.179688 17.785156 21.097656 17.785156 21.019531 C 17.78125 21.019531 16.222656 20.855469 14.703125 22.679688 Z M 20.238281 28.660156 C 20.050781 28.847656 19.746094 28.847656 19.554688 28.660156 L 16.339844 25.445312 C 16.152344 25.253906 16.152344 24.949219 16.339844 24.761719 C 16.53125 24.574219 16.835938 24.574219 17.023438 24.761719 L 20.238281 27.976562 C 20.425781 28.164062 20.425781 28.46875 20.238281 28.660156 Z M 27.90625 22.542969 C 27.519531 23.164062 26.199219 23.96875 26.148438 25.484375 C 26.097656 27 25.835938 27.582031 25.3125 28.238281 C 24.890625 28.769531 24.300781 28.753906 23.976562 28.414062 C 23.617188 29.257812 23.644531 30.324219 23.644531 30.324219 C 22 31.953125 21.859375 32.785156 21.894531 33.109375 C 22.015625 33.09375 22.140625 33.132812 22.230469 33.222656 C 22.386719 33.378906 22.386719 33.636719 22.230469 33.792969 C 22.070312 33.953125 21.816406 33.953125 21.65625 33.792969 C 21.460938 33.6875 21.320312 33.15625 21.757812 32.210938 C 22.195312 31.269531 22.386719 29.976562 22.386719 29.976562 C 23.203125 29.292969 23.589844 28.601562 23.769531 28.070312 C 23.53125 27.554688 22.683594 26.46875 22.386719 26.09375 L 22.246094 26.230469 L 19.0625 23.046875 L 20.730469 21.382812 L 23.34375 23.992188 L 25.414062 21.921875 L 22.800781 19.308594 L 24.46875 17.640625 L 27.652344 20.824219 L 27.546875 20.933594 C 28.226562 21.289062 28.269531 21.964844 27.90625 22.542969 Z M 27.90625 22.542969 "/>
</g>
</svg>
