
<svg xmlns="http://www.w3.org/2000/svg">
	<symbol id="search" viewBox="0 0 16 16" width="16" height="16">
		<path d="M 15.804688 14.863281 L 11.253906 10.3125 C 12.136719 9.222656 12.667969 7.839844 12.667969 6.332031 C 12.667969 2.839844 9.824219 0 6.332031 0 C 2.839844 0 0 2.839844 0 6.332031 C 0 9.824219 2.839844 12.667969 6.332031 12.667969 C 7.839844 12.667969 9.222656 12.136719 10.3125 11.253906 L 14.863281 15.804688 C 14.992188 15.933594 15.164062 16 15.332031 16 C 15.503906 16 15.675781 15.933594 15.804688 15.804688 C 16.066406 15.542969 16.066406 15.121094 15.804688 14.863281 Z M 6.332031 11.332031 C 3.574219 11.332031 1.332031 9.089844 1.332031 6.332031 C 1.332031 3.574219 3.574219 1.332031 6.332031 1.332031 C 9.089844 1.332031 11.332031 3.574219 11.332031 6.332031 C 11.332031 9.089844 9.089844 11.332031 6.332031 11.332031 Z M 6.332031 11.332031 "/>
	</symbol>

	<symbol id="cart" viewBox="0 0 17 17" width="17" height="17">
		<path d="M 5.476562 10.992188 C 5.480469 10.992188 5.480469 10.988281 5.480469 10.988281 L 14.507812 10.988281 C 14.730469 10.988281 14.925781 10.84375 14.988281 10.628906 L 16.980469 3.65625 C 17.023438 3.507812 16.992188 3.34375 16.898438 3.21875 C 16.804688 3.09375 16.660156 3.023438 16.5 3.023438 L 4.328125 3.023438 L 3.972656 1.417969 C 3.921875 1.191406 3.71875 1.03125 3.484375 1.03125 L 0.496094 1.03125 C 0.222656 1.03125 0 1.253906 0 1.527344 C 0 1.800781 0.222656 2.027344 0.496094 2.027344 L 3.085938 2.027344 C 3.148438 2.308594 4.789062 9.691406 4.886719 10.117188 C 4.355469 10.347656 3.984375 10.875 3.984375 11.488281 C 3.984375 12.3125 4.65625 12.980469 5.476562 12.980469 L 14.507812 12.980469 C 14.785156 12.980469 15.007812 12.757812 15.007812 12.484375 C 15.007812 12.210938 14.785156 11.984375 14.507812 11.984375 L 5.476562 11.984375 C 5.203125 11.984375 4.980469 11.761719 4.980469 11.488281 C 4.980469 11.214844 5.203125 10.992188 5.476562 10.992188 Z M 15.839844 4.019531 L 14.132812 9.992188 L 5.878906 9.992188 L 4.550781 4.019531 Z M 15.839844 4.019531 "/>
		<path d="M 4.980469 14.476562 C 4.980469 15.300781 5.652344 15.96875 6.472656 15.96875 C 7.296875 15.96875 7.96875 15.300781 7.96875 14.476562 C 7.96875 13.652344 7.296875 12.980469 6.472656 12.980469 C 5.652344 12.980469 4.980469 13.652344 4.980469 14.476562 Z M 6.472656 13.976562 C 6.75 13.976562 6.972656 14.203125 6.972656 14.476562 C 6.972656 14.75 6.75 14.972656 6.472656 14.972656 C 6.199219 14.972656 5.976562 14.75 5.976562 14.476562 C 5.976562 14.203125 6.199219 13.976562 6.472656 13.976562 Z M 6.472656 13.976562 "/>
		<path d="M 12.019531 14.476562 C 12.019531 15.300781 12.691406 15.96875 13.511719 15.96875 C 14.335938 15.96875 15.007812 15.300781 15.007812 14.476562 C 15.007812 13.652344 14.335938 12.980469 13.511719 12.980469 C 12.691406 12.980469 12.019531 13.652344 12.019531 14.476562 Z M 13.511719 13.976562 C 13.789062 13.976562 14.011719 14.203125 14.011719 14.476562 C 14.011719 14.75 13.789062 14.972656 13.511719 14.972656 C 13.238281 14.972656 13.015625 14.75 13.015625 14.476562 C 13.015625 14.203125 13.238281 13.976562 13.511719 13.976562 Z M 13.511719 13.976562 "/>
	</symbol>

	<symbol id="login" viewBox="0 0 16 16" width="16" height="16">
		<path d="M 13.65625 10.34375 C 12.785156 9.472656 11.75 8.828125 10.617188 8.4375 C 11.828125 7.601562 12.625 6.203125 12.625 4.625 C 12.625 2.074219 10.550781 0 8 0 C 5.449219 0 3.375 2.074219 3.375 4.625 C 3.375 6.203125 4.171875 7.601562 5.382812 8.4375 C 4.25 8.828125 3.214844 9.472656 2.34375 10.34375 C 0.832031 11.855469 0 13.863281 0 16 L 1.25 16 C 1.25 12.277344 4.277344 9.25 8 9.25 C 11.722656 9.25 14.75 12.277344 14.75 16 L 16 16 C 16 13.863281 15.167969 11.855469 13.65625 10.34375 Z M 8 8 C 6.140625 8 4.625 6.484375 4.625 4.625 C 4.625 2.765625 6.140625 1.25 8 1.25 C 9.859375 1.25 11.375 2.765625 11.375 4.625 C 11.375 6.484375 9.859375 8 8 8 Z M 8 8 "/>
	</symbol>

	<symbol id="like" viewBox="0 0 18 18" width="18" height="18">
		<path d="M 9 17 C 8.742188 17 8.496094 16.90625 8.304688 16.738281 C 7.578125 16.101562 6.875 15.503906 6.257812 14.976562 L 6.253906 14.972656 C 4.441406 13.429688 2.875 12.09375 1.785156 10.78125 C 0.566406 9.308594 0 7.917969 0 6.394531 C 0 4.914062 0.507812 3.550781 1.429688 2.550781 C 2.359375 1.539062 3.636719 0.984375 5.027344 0.984375 C 6.066406 0.984375 7.019531 1.3125 7.855469 1.960938 C 8.277344 2.289062 8.664062 2.6875 9 3.15625 C 9.335938 2.6875 9.71875 2.289062 10.144531 1.960938 C 10.980469 1.3125 11.933594 0.984375 12.972656 0.984375 C 14.363281 0.984375 15.640625 1.539062 16.570312 2.550781 C 17.492188 3.550781 18 4.914062 18 6.394531 C 18 7.917969 17.433594 9.308594 16.214844 10.777344 C 15.125 12.09375 13.558594 13.429688 11.746094 14.972656 C 11.125 15.5 10.425781 16.101562 9.695312 16.738281 C 9.503906 16.90625 9.257812 17 9 17 Z M 5.027344 2.039062 C 3.9375 2.039062 2.933594 2.476562 2.203125 3.265625 C 1.460938 4.070312 1.054688 5.179688 1.054688 6.394531 C 1.054688 7.675781 1.53125 8.820312 2.597656 10.105469 C 3.628906 11.351562 5.160156 12.65625 6.9375 14.171875 L 6.941406 14.175781 C 7.5625 14.703125 8.265625 15.304688 9 15.945312 C 9.734375 15.300781 10.441406 14.703125 11.0625 14.171875 C 12.839844 12.65625 14.371094 11.351562 15.402344 10.105469 C 16.46875 8.820312 16.945312 7.675781 16.945312 6.394531 C 16.945312 5.179688 16.539062 4.070312 15.796875 3.265625 C 15.066406 2.476562 14.0625 2.039062 12.972656 2.039062 C 12.171875 2.039062 11.4375 2.292969 10.789062 2.792969 C 10.210938 3.242188 9.808594 3.808594 9.570312 4.203125 C 9.449219 4.40625 9.238281 4.527344 9 4.527344 C 8.761719 4.527344 8.550781 4.40625 8.429688 4.203125 C 8.191406 3.808594 7.789062 3.242188 7.210938 2.792969 C 6.5625 2.292969 5.828125 2.039062 5.027344 2.039062 Z M 5.027344 2.039062 "/>
	</symbol>

	<symbol id="more" viewBox="0 0 35 35" width="35" height="35">
		<path d="M 10.8125 0 L 6.6875 4.128906 L 20.058594 17.5 L 6.6875 30.871094 L 10.8125 35 L 28.3125 17.5 Z M 10.8125 0 "/>
	</symbol>

	<symbol id="up" viewBox="0 0 32 32" fill="#fff">
		<path d="M29.824 7.96a15.942 15.942 0 00-5.816-5.815C21.558.715 18.883 0 15.984 0c-2.902 0-5.574.715-8.023 2.145A15.913 15.913 0 002.145 7.96C.715 10.41 0 13.082 0 15.984c0 2.899.715 5.57 2.145 8.02a15.923 15.923 0 005.816 5.82c2.45 1.426 5.121 2.14 8.023 2.14 2.899 0 5.575-.714 8.024-2.14a15.953 15.953 0 005.816-5.82c1.426-2.445 2.14-5.121 2.14-8.02 0-2.902-.714-5.574-2.14-8.023zm-3.476 8.938l-1.895 1.895a1.281 1.281 0 01-.937.395 1.28 1.28 0 01-.934-.395l-3.934-3.934v10.446c0 .363-.132.675-.398.937a1.264 1.264 0 01-.934.395h-2.664a1.27 1.27 0 01-.937-.395 1.281 1.281 0 01-.395-.937V14.859l-3.933 3.934c-.25.25-.563.375-.938.375s-.687-.125-.937-.375l-1.895-1.895a1.284 1.284 0 01-.37-.937c0-.375.12-.684.37-.934l9.43-9.43c.25-.25.562-.374.937-.374s.688.125.934.375l9.43 9.43c.25.245.375.558.375.933s-.125.687-.375.937zm0 0"/>
	</symbol>
</svg>