<svg xmlns="http://www.w3.org/2000/svg">
	<symbol id="search" viewBox="0 0 16 16" width="16" height="16">
		<path d="M 15.804688 14.863281 L 11.253906 10.3125 C 12.136719 9.222656 12.667969 7.839844 12.667969 6.332031 C 12.667969 2.839844 9.824219 0 6.332031 0 C 2.839844 0 0 2.839844 0 6.332031 C 0 9.824219 2.839844 12.667969 6.332031 12.667969 C 7.839844 12.667969 9.222656 12.136719 10.3125 11.253906 L 14.863281 15.804688 C 14.992188 15.933594 15.164062 16 15.332031 16 C 15.503906 16 15.675781 15.933594 15.804688 15.804688 C 16.066406 15.542969 16.066406 15.121094 15.804688 14.863281 Z M 6.332031 11.332031 C 3.574219 11.332031 1.332031 9.089844 1.332031 6.332031 C 1.332031 3.574219 3.574219 1.332031 6.332031 1.332031 C 9.089844 1.332031 11.332031 3.574219 11.332031 6.332031 C 11.332031 9.089844 9.089844 11.332031 6.332031 11.332031 Z M 6.332031 11.332031 "/>
	</symbol>

	<symbol id="cart" viewBox="0 0 17 17" width="17" height="17">
		<path d="M 5.476562 10.992188 C 5.480469 10.992188 5.480469 10.988281 5.480469 10.988281 L 14.507812 10.988281 C 14.730469 10.988281 14.925781 10.84375 14.988281 10.628906 L 16.980469 3.65625 C 17.023438 3.507812 16.992188 3.34375 16.898438 3.21875 C 16.804688 3.09375 16.660156 3.023438 16.5 3.023438 L 4.328125 3.023438 L 3.972656 1.417969 C 3.921875 1.191406 3.71875 1.03125 3.484375 1.03125 L 0.496094 1.03125 C 0.222656 1.03125 0 1.253906 0 1.527344 C 0 1.800781 0.222656 2.027344 0.496094 2.027344 L 3.085938 2.027344 C 3.148438 2.308594 4.789062 9.691406 4.886719 10.117188 C 4.355469 10.347656 3.984375 10.875 3.984375 11.488281 C 3.984375 12.3125 4.65625 12.980469 5.476562 12.980469 L 14.507812 12.980469 C 14.785156 12.980469 15.007812 12.757812 15.007812 12.484375 C 15.007812 12.210938 14.785156 11.984375 14.507812 11.984375 L 5.476562 11.984375 C 5.203125 11.984375 4.980469 11.761719 4.980469 11.488281 C 4.980469 11.214844 5.203125 10.992188 5.476562 10.992188 Z M 15.839844 4.019531 L 14.132812 9.992188 L 5.878906 9.992188 L 4.550781 4.019531 Z M 15.839844 4.019531 "/>
		<path d="M 4.980469 14.476562 C 4.980469 15.300781 5.652344 15.96875 6.472656 15.96875 C 7.296875 15.96875 7.96875 15.300781 7.96875 14.476562 C 7.96875 13.652344 7.296875 12.980469 6.472656 12.980469 C 5.652344 12.980469 4.980469 13.652344 4.980469 14.476562 Z M 6.472656 13.976562 C 6.75 13.976562 6.972656 14.203125 6.972656 14.476562 C 6.972656 14.75 6.75 14.972656 6.472656 14.972656 C 6.199219 14.972656 5.976562 14.75 5.976562 14.476562 C 5.976562 14.203125 6.199219 13.976562 6.472656 13.976562 Z M 6.472656 13.976562 "/>
		<path d="M 12.019531 14.476562 C 12.019531 15.300781 12.691406 15.96875 13.511719 15.96875 C 14.335938 15.96875 15.007812 15.300781 15.007812 14.476562 C 15.007812 13.652344 14.335938 12.980469 13.511719 12.980469 C 12.691406 12.980469 12.019531 13.652344 12.019531 14.476562 Z M 13.511719 13.976562 C 13.789062 13.976562 14.011719 14.203125 14.011719 14.476562 C 14.011719 14.75 13.789062 14.972656 13.511719 14.972656 C 13.238281 14.972656 13.015625 14.75 13.015625 14.476562 C 13.015625 14.203125 13.238281 13.976562 13.511719 13.976562 Z M 13.511719 13.976562 "/>
	</symbol>

	<symbol id="login" viewBox="0 0 16 16" width="16" height="16">
		<path d="M 13.65625 10.34375 C 12.785156 9.472656 11.75 8.828125 10.617188 8.4375 C 11.828125 7.601562 12.625 6.203125 12.625 4.625 C 12.625 2.074219 10.550781 0 8 0 C 5.449219 0 3.375 2.074219 3.375 4.625 C 3.375 6.203125 4.171875 7.601562 5.382812 8.4375 C 4.25 8.828125 3.214844 9.472656 2.34375 10.34375 C 0.832031 11.855469 0 13.863281 0 16 L 1.25 16 C 1.25 12.277344 4.277344 9.25 8 9.25 C 11.722656 9.25 14.75 12.277344 14.75 16 L 16 16 C 16 13.863281 15.167969 11.855469 13.65625 10.34375 Z M 8 8 C 6.140625 8 4.625 6.484375 4.625 4.625 C 4.625 2.765625 6.140625 1.25 8 1.25 C 9.859375 1.25 11.375 2.765625 11.375 4.625 C 11.375 6.484375 9.859375 8 8 8 Z M 8 8 "/>
	</symbol>

	<symbol id="like" viewBox="0 0 18 18" width="18" height="18">
		<path d="M 9 17 C 8.742188 17 8.496094 16.90625 8.304688 16.738281 C 7.578125 16.101562 6.875 15.503906 6.257812 14.976562 L 6.253906 14.972656 C 4.441406 13.429688 2.875 12.09375 1.785156 10.78125 C 0.566406 9.308594 0 7.917969 0 6.394531 C 0 4.914062 0.507812 3.550781 1.429688 2.550781 C 2.359375 1.539062 3.636719 0.984375 5.027344 0.984375 C 6.066406 0.984375 7.019531 1.3125 7.855469 1.960938 C 8.277344 2.289062 8.664062 2.6875 9 3.15625 C 9.335938 2.6875 9.71875 2.289062 10.144531 1.960938 C 10.980469 1.3125 11.933594 0.984375 12.972656 0.984375 C 14.363281 0.984375 15.640625 1.539062 16.570312 2.550781 C 17.492188 3.550781 18 4.914062 18 6.394531 C 18 7.917969 17.433594 9.308594 16.214844 10.777344 C 15.125 12.09375 13.558594 13.429688 11.746094 14.972656 C 11.125 15.5 10.425781 16.101562 9.695312 16.738281 C 9.503906 16.90625 9.257812 17 9 17 Z M 5.027344 2.039062 C 3.9375 2.039062 2.933594 2.476562 2.203125 3.265625 C 1.460938 4.070312 1.054688 5.179688 1.054688 6.394531 C 1.054688 7.675781 1.53125 8.820312 2.597656 10.105469 C 3.628906 11.351562 5.160156 12.65625 6.9375 14.171875 L 6.941406 14.175781 C 7.5625 14.703125 8.265625 15.304688 9 15.945312 C 9.734375 15.300781 10.441406 14.703125 11.0625 14.171875 C 12.839844 12.65625 14.371094 11.351562 15.402344 10.105469 C 16.46875 8.820312 16.945312 7.675781 16.945312 6.394531 C 16.945312 5.179688 16.539062 4.070312 15.796875 3.265625 C 15.066406 2.476562 14.0625 2.039062 12.972656 2.039062 C 12.171875 2.039062 11.4375 2.292969 10.789062 2.792969 C 10.210938 3.242188 9.808594 3.808594 9.570312 4.203125 C 9.449219 4.40625 9.238281 4.527344 9 4.527344 C 8.761719 4.527344 8.550781 4.40625 8.429688 4.203125 C 8.191406 3.808594 7.789062 3.242188 7.210938 2.792969 C 6.5625 2.292969 5.828125 2.039062 5.027344 2.039062 Z M 5.027344 2.039062 "/>
	</symbol>

	<symbol id="more" viewBox="0 0 35 35" width="35" height="35">
		<path d="M 10.8125 0 L 6.6875 4.128906 L 20.058594 17.5 L 6.6875 30.871094 L 10.8125 35 L 28.3125 17.5 Z M 10.8125 0 "/>
	</symbol>

	<symbol id="up" viewBox="0 0 32 32" fill="#fff">
		<path d="M29.824 7.96a15.942 15.942 0 00-5.816-5.815C21.558.715 18.883 0 15.984 0c-2.902 0-5.574.715-8.023 2.145A15.913 15.913 0 002.145 7.96C.715 10.41 0 13.082 0 15.984c0 2.899.715 5.57 2.145 8.02a15.923 15.923 0 005.816 5.82c2.45 1.426 5.121 2.14 8.023 2.14 2.899 0 5.575-.714 8.024-2.14a15.953 15.953 0 005.816-5.82c1.426-2.445 2.14-5.121 2.14-8.02 0-2.902-.714-5.574-2.14-8.023zm-3.476 8.938l-1.895 1.895a1.281 1.281 0 01-.937.395 1.28 1.28 0 01-.934-.395l-3.934-3.934v10.446c0 .363-.132.675-.398.937a1.264 1.264 0 01-.934.395h-2.664a1.27 1.27 0 01-.937-.395 1.281 1.281 0 01-.395-.937V14.859l-3.933 3.934c-.25.25-.563.375-.938.375s-.687-.125-.937-.375l-1.895-1.895a1.284 1.284 0 01-.37-.937c0-.375.12-.684.37-.934l9.43-9.43c.25-.25.562-.374.937-.374s.688.125.934.375l9.43 9.43c.25.245.375.558.375.933s-.125.687-.375.937zm0 0"/>
	</symbol>

	<symbol id="inst" viewBox="0 0 16 16" width="16" height="16">
		<path d="M 11.667969 0 L 4.332031 0 C 1.941406 0 0 1.941406 0 4.332031 L 0 11.667969 C 0 14.058594 1.941406 16 4.332031 16 L 11.667969 16 C 14.058594 16 16 14.058594 16 11.667969 L 16 4.332031 C 16 1.941406 14.058594 0 11.667969 0 Z M 15.0625 11.667969 C 15.0625 13.539062 13.539062 15.0625 11.667969 15.0625 L 4.332031 15.0625 C 2.460938 15.0625 0.9375 13.539062 0.9375 11.667969 L 0.9375 4.332031 C 0.9375 2.460938 2.460938 0.9375 4.332031 0.9375 L 11.667969 0.9375 C 13.539062 0.9375 15.0625 2.460938 15.0625 4.332031 Z M 15.0625 11.667969 "/>
		<path d="M 8 3.625 C 5.585938 3.625 3.625 5.585938 3.625 8 C 3.625 10.414062 5.585938 12.375 8 12.375 C 10.414062 12.375 12.375 10.414062 12.375 8 C 12.375 5.585938 10.414062 3.625 8 3.625 Z M 8 11.4375 C 6.105469 11.4375 4.5625 9.894531 4.5625 8 C 4.5625 6.105469 6.105469 4.5625 8 4.5625 C 9.894531 4.5625 11.4375 6.105469 11.4375 8 C 11.4375 9.894531 9.894531 11.4375 8 11.4375 Z M 8 11.4375 "/>
		<path d="M 12.480469 2.070312 C 11.765625 2.070312 11.1875 2.652344 11.1875 3.363281 C 11.1875 4.078125 11.765625 4.65625 12.480469 4.65625 C 13.191406 4.65625 13.773438 4.078125 13.773438 3.363281 C 13.773438 2.652344 13.191406 2.070312 12.480469 2.070312 Z M 12.480469 3.71875 C 12.285156 3.71875 12.125 3.558594 12.125 3.363281 C 12.125 3.167969 12.285156 3.007812 12.480469 3.007812 C 12.675781 3.007812 12.835938 3.167969 12.835938 3.363281 C 12.835938 3.558594 12.675781 3.71875 12.480469 3.71875 Z M 12.480469 3.71875 "/>
	</symbol>

	<symbol id="google" viewBox="0 0 16 16" width="16" height="16">
		<path d="M 5.1875 4.71875 C 6.269531 4.71875 7.25 5.273438 7.8125 6.039062 L 9.144531 4.699219 C 8.347656 3.664062 6.816406 2.84375 5.1875 2.84375 C 2.335938 2.84375 0 5.148438 0 8 C 0 10.851562 2.335938 13.15625 5.1875 13.15625 C 7.550781 13.15625 9.539062 11.570312 10.148438 9.40625 C 10.277344 8.957031 10.34375 8.488281 10.34375 8 L 10.34375 7.53125 L 5.65625 7.53125 L 5.65625 9.40625 L 8.140625 9.40625 C 7.625 10.511719 6.492188 11.28125 5.1875 11.28125 C 3.378906 11.28125 1.875 9.808594 1.875 8 C 1.875 6.191406 3.378906 4.71875 5.1875 4.71875 Z M 5.1875 4.71875 "/>
		<path d="M 14.5625 5.65625 L 12.6875 5.65625 L 12.6875 7.0625 L 11.28125 7.0625 L 11.28125 8.9375 L 12.6875 8.9375 L 12.6875 10.34375 L 14.5625 10.34375 L 14.5625 8.9375 L 16 8.9375 L 16 7.0625 L 14.5625 7.0625 Z M 14.5625 5.65625 "/>
	</symbol>

	<symbol id="facebook" viewBox="0 0 16 16" width="16" height="16">
		<path d="M 10.664062 2.65625 L 12.125 2.65625 L 12.125 0.113281 C 11.875 0.078125 11.007812 0 9.996094 0 C 7.890625 0 6.449219 1.324219 6.449219 3.757812 L 6.449219 6 L 4.125 6 L 4.125 8.84375 L 6.449219 8.84375 L 6.449219 16 L 9.296875 16 L 9.296875 8.84375 L 11.527344 8.84375 L 11.882812 6 L 9.296875 6 L 9.296875 4.042969 C 9.296875 3.21875 9.519531 2.65625 10.664062 2.65625 Z M 10.664062 2.65625 "/>
	</symbol>

	<symbol id="filter" viewBox="0 0 24 24" width="24" height="24">
		<path d="M 12 19.023438 L 1.246094 8.304688 L 0 9.554688 L 12 21.515625 L 24 9.554688 L 22.753906 8.304688 Z M 12 19.023438 "/>
		<path d="M 24 3.734375 L 22.753906 2.484375 L 12 13.199219 L 1.246094 2.484375 L 0 3.734375 L 12 15.695312 Z M 24 3.734375 "/>
	</symbol>

	<symbol id="grid" viewBox="0 0 15 15" width="15" height="15">
		<path id="grid" d="M855 613.75h3.75V610H855v3.75zm5.625 11.25h3.75v-3.75h-3.75V625zM855 625h3.75v-3.75H855V625zm0-5.625h3.75v-3.75H855v3.75zm5.625 0h3.75v-3.75h-3.75v3.75zM866.25 610v3.75H870V610h-3.75zm-5.625 3.75h3.75V610h-3.75v3.75zm5.625 5.625H870v-3.75h-3.75v3.75zm0 5.625H870v-3.75h-3.75V625z" transform="translate(-855 -610)"/>
	</symbol>

	<symbol id="list" viewBox="0 0 20 15" width="20" height="15">
		<path id="list" d="M885.007 610h4.422v4.172h-4.422V610zm5.828 0h14.159v4.172h-14.159V610zm-5.828 5.413h4.422v4.172h-4.422v-4.172zm5.828 0h14.159v4.172h-14.159v-4.172zm-5.828 5.414h4.422V625h-4.422v-4.171zm5.828 0h14.159V625h-14.159v-4.171z" transform="translate(-885 -610)"/>
	</symbol>

	<symbol id="filters" viewBox="0 0 32 32" width="32" height="32">
		<path d="M28 9H11a1 1 0 010-2h17a1 1 0 010 2zM7 9H4a1 1 0 010-2h3a1 1 0 010 2zm14 8H4a1 1 0 010-2h17a1 1 0 010 2zm-10 8H4a1 1 0 010-2h7a1 1 0 010 2z"/>
		<path d="M9 11a3 3 0 113-3 3 3 0 01-3 3zm0-4a1 1 0 101 1 1 1 0 00-1-1zm14 12a3 3 0 113-3 3 3 0 01-3 3zm0-4a1 1 0 101 1 1 1 0 00-1-1zM13 27a3 3 0 113-3 3 3 0 01-3 3zm0-4a1 1 0 101 1 1 1 0 00-1-1z"/>
		<path d="M28 17h-3a1 1 0 010-2h3a1 1 0 010 2zm0 8H15a1 1 0 010-2h13a1 1 0 010 2z"/>
	</symbol>

	<symbol id="play" viewBox="0 0 163.861 163.861" width="163.861px" height="163.861px">
		<path d="M34.857,3.613C20.084-4.861,8.107,2.081,8.107,19.106v125.637c0,17.042,11.977,23.975,26.75,15.509L144.67,97.275
		c14.778-8.477,14.778-22.211,0-30.686L34.857,3.613z"/>
	</symbol>

	<symbol id="star" viewBox="0 0 22 22" width="22" height="22">
		<path d="M 21.933594 8.433594 C 21.789062 7.988281 21.394531 7.675781 20.929688 7.632812 L 14.582031 7.054688 L 12.070312 1.183594 C 11.886719 0.75 11.464844 0.472656 10.996094 0.472656 C 10.527344 0.472656 10.105469 0.75 9.921875 1.183594 L 7.410156 7.054688 L 1.0625 7.632812 C 0.597656 7.675781 0.203125 7.992188 0.0585938 8.433594 C -0.0859375 8.878906 0.046875 9.367188 0.398438 9.675781 L 5.199219 13.886719 L 3.78125 20.117188 C 3.679688 20.574219 3.855469 21.050781 4.238281 21.324219 C 4.441406 21.472656 4.679688 21.546875 4.921875 21.546875 C 5.128906 21.546875 5.335938 21.492188 5.523438 21.378906 L 10.996094 18.109375 L 16.46875 21.378906 C 16.871094 21.621094 17.375 21.597656 17.753906 21.324219 C 18.132812 21.050781 18.3125 20.574219 18.210938 20.117188 L 16.792969 13.886719 L 21.59375 9.675781 C 21.945312 9.367188 22.078125 8.882812 21.933594 8.433594 Z M 11.101562 18.042969 "/>
	</symbol>

	<symbol id="loop" viewBox="0 0 17 17" width="17" height="17">
		<path d="M 16.792969 15.789062 L 11.957031 10.957031 C 12.894531 9.800781 13.457031 8.328125 13.457031 6.730469 C 13.457031 3.019531 10.4375 0 6.730469 0 C 3.019531 0 0 3.019531 0 6.730469 C 0 10.4375 3.019531 13.457031 6.730469 13.457031 C 8.328125 13.457031 9.800781 12.894531 10.957031 11.957031 L 15.789062 16.792969 C 15.929688 16.929688 16.109375 17 16.292969 17 C 16.472656 17 16.652344 16.929688 16.792969 16.792969 C 17.070312 16.515625 17.070312 16.066406 16.792969 15.789062 Z M 6.730469 12.042969 C 3.800781 12.042969 1.417969 9.660156 1.417969 6.730469 C 1.417969 3.800781 3.800781 1.417969 6.730469 1.417969 C 9.660156 1.417969 12.042969 3.800781 12.042969 6.730469 C 12.042969 9.660156 9.660156 12.042969 6.730469 12.042969 Z M 6.730469 12.042969 "/>
	</symbol>

	<symbol id="clock" viewBox="0 0 14 14" width="14" height="14">
		<path d="M 9.496094 8.234375 L 7.542969 6.773438 L 7.542969 3.789062 C 7.542969 3.492188 7.300781 3.246094 7 3.246094 C 6.699219 3.246094 6.457031 3.492188 6.457031 3.789062 L 6.457031 7.042969 C 6.457031 7.214844 6.539062 7.375 6.675781 7.476562 L 8.84375 9.105469 C 8.941406 9.175781 9.054688 9.210938 9.167969 9.210938 C 9.332031 9.210938 9.496094 9.136719 9.601562 8.996094 C 9.78125 8.753906 9.734375 8.414062 9.496094 8.234375 Z M 9.496094 8.234375 "/>
		<path d="M 7 0 C 3.140625 0 0 3.140625 0 7 C 0 10.859375 3.140625 14 7 14 C 10.859375 14 14 10.859375 14 7 C 14 3.140625 10.859375 0 7 0 Z M 7 12.914062 C 3.738281 12.914062 1.085938 10.261719 1.085938 7 C 1.085938 3.738281 3.738281 1.085938 7 1.085938 C 10.261719 1.085938 12.914062 3.738281 12.914062 7 C 12.914062 10.261719 10.261719 12.914062 7 12.914062 Z M 7 12.914062 "/>
	</symbol>
</svg>