<svg xmlns="http://www.w3.org/2000/svg"><symbol id="search" viewBox="0 0 16 16"><path d="M15.805 14.863l-4.551-4.55a6.301 6.301 0 001.414-3.981C12.668 2.84 9.824 0 6.332 0A6.338 6.338 0 000 6.332c0 3.492 2.84 6.336 6.332 6.336 1.508 0 2.89-.531 3.98-1.414l4.551 4.55a.666.666 0 10.942-.94zm-9.473-3.531c-2.758 0-5-2.242-5-5s2.242-5 5-5 5 2.242 5 5-2.242 5-5 5zm0 0"/></symbol><symbol id="cart" viewBox="0 0 17 17"><path d="M5.477 10.992c.003 0 .003-.004.003-.004h9.028a.498.498 0 00.48-.36l1.992-6.972a.502.502 0 00-.082-.437.49.49 0 00-.398-.196H4.328l-.355-1.605a.498.498 0 00-.489-.387H.496A.497.497 0 000 1.527a.5.5 0 00.496.5h2.59c.062.282 1.703 7.664 1.8 8.09-.53.23-.902.758-.902 1.371 0 .825.672 1.492 1.493 1.492h9.03a.498.498 0 100-.996h-9.03a.497.497 0 010-.992zM15.84 4.02l-1.707 5.972H5.879L4.55 4.02zM4.98 14.477a1.495 1.495 0 002.989 0 1.5 1.5 0 00-1.496-1.497 1.5 1.5 0 00-1.493 1.497zm1.493-.5a.498.498 0 11.005.997.498.498 0 01-.005-.997zm5.547.5a1.495 1.495 0 002.988 0 1.5 1.5 0 00-1.496-1.497c-.82 0-1.492.672-1.492 1.497zm1.492-.5a.498.498 0 11.005.997.498.498 0 01-.005-.997zm0 0"/></symbol><symbol id="login" viewBox="0 0 16 16"><path d="M13.656 10.344a7.958 7.958 0 00-3.039-1.906 4.631 4.631 0 002.008-3.813A4.63 4.63 0 008 0a4.63 4.63 0 00-4.625 4.625c0 1.578.797 2.977 2.008 3.813a7.958 7.958 0 00-3.04 1.906A7.945 7.945 0 000 16h1.25A6.757 6.757 0 018 9.25 6.757 6.757 0 0114.75 16H16a7.945 7.945 0 00-2.344-5.656zM8 8a3.38 3.38 0 01-3.375-3.375A3.38 3.38 0 018 1.25a3.38 3.38 0 013.375 3.375A3.38 3.38 0 018 8zm0 0"/></symbol><symbol id="like" viewBox="0 0 18 18"><path d="M9 17a1.05 1.05 0 01-.695-.262c-.727-.636-1.43-1.234-2.047-1.761l-.004-.004c-1.813-1.543-3.379-2.88-4.469-4.192C.566 9.31 0 7.918 0 6.395 0 4.915.508 3.55 1.43 2.55A4.825 4.825 0 015.027.984a4.52 4.52 0 012.828.977c.422.328.81.726 1.145 1.195a5.659 5.659 0 011.145-1.195 4.52 4.52 0 012.828-.977c1.39 0 2.668.555 3.597 1.567.922 1 1.43 2.363 1.43 3.844 0 1.523-.566 2.914-1.785 4.382-1.09 1.317-2.656 2.653-4.469 4.196-.621.527-1.32 1.129-2.05 1.765A1.053 1.053 0 019 17zM5.027 2.04c-1.09 0-2.093.437-2.824 1.226-.742.804-1.148 1.914-1.148 3.129 0 1.28.476 2.425 1.543 3.71 1.03 1.247 2.562 2.551 4.34 4.067l.003.004A203.25 203.25 0 019 15.946c.734-.645 1.441-1.243 2.063-1.774 1.777-1.516 3.308-2.82 4.34-4.067 1.066-1.285 1.542-2.43 1.542-3.71 0-1.215-.406-2.325-1.148-3.13a3.808 3.808 0 00-2.824-1.226c-.801 0-1.536.254-2.184.754-.578.45-.98 1.016-1.219 1.41a.656.656 0 01-.57.324.656.656 0 01-.57-.324c-.239-.394-.64-.96-1.22-1.41a3.503 3.503 0 00-2.183-.754zm0 0"/></symbol><symbol id="more" viewBox="0 0 35 35"><path d="M10.813 0L6.686 4.129 20.06 17.5 6.687 30.871 10.813 35l17.5-17.5zm0 0"/></symbol><symbol id="up" viewBox="0 0 32 32" fill="#fff"><path d="M29.824 7.96a15.942 15.942 0 00-5.816-5.815C21.558.715 18.883 0 15.984 0c-2.902 0-5.574.715-8.023 2.145A15.913 15.913 0 002.145 7.96C.715 10.41 0 13.082 0 15.984c0 2.899.715 5.57 2.145 8.02a15.923 15.923 0 005.816 5.82c2.45 1.426 5.121 2.14 8.023 2.14 2.899 0 5.575-.714 8.024-2.14a15.953 15.953 0 005.816-5.82c1.426-2.445 2.14-5.121 2.14-8.02 0-2.902-.714-5.574-2.14-8.023zm-3.476 8.938l-1.895 1.895a1.281 1.281 0 01-.937.395 1.28 1.28 0 01-.934-.395l-3.934-3.934v10.446c0 .363-.132.675-.398.937a1.264 1.264 0 01-.934.395h-2.664a1.27 1.27 0 01-.937-.395 1.281 1.281 0 01-.395-.937V14.859l-3.933 3.934c-.25.25-.563.375-.938.375s-.687-.125-.937-.375l-1.895-1.895a1.284 1.284 0 01-.37-.937c0-.375.12-.684.37-.934l9.43-9.43c.25-.25.562-.374.937-.374s.688.125.934.375l9.43 9.43c.25.245.375.558.375.933s-.125.687-.375.937zm0 0"/></symbol><symbol id="inst" viewBox="0 0 16 16"><path d="M11.668 0H4.332A4.334 4.334 0 000 4.332v7.336A4.334 4.334 0 004.332 16h7.336A4.334 4.334 0 0016 11.668V4.332A4.334 4.334 0 0011.668 0zm3.395 11.668a3.4 3.4 0 01-3.395 3.395H4.332a3.4 3.4 0 01-3.394-3.395V4.332A3.4 3.4 0 014.332.938h7.336a3.4 3.4 0 013.395 3.394zm0 0"/><path d="M8 3.625A4.378 4.378 0 003.625 8 4.378 4.378 0 008 12.375 4.378 4.378 0 0012.375 8 4.378 4.378 0 008 3.625zm0 7.813A3.443 3.443 0 014.562 8 3.443 3.443 0 018 4.562 3.443 3.443 0 0111.438 8 3.443 3.443 0 018 11.438zm4.48-9.368a1.292 1.292 0 10-.002 2.588 1.292 1.292 0 00.002-2.588zm0 1.649a.357.357 0 01-.355-.356.356.356 0 01.711 0c0 .196-.16.356-.356.356zm0 0"/></symbol><symbol id="google" viewBox="0 0 16 16"><path d="M5.188 4.719c1.082 0 2.062.554 2.625 1.32L9.145 4.7c-.797-1.035-2.329-1.855-3.957-1.855C2.336 2.844 0 5.148 0 8s2.336 5.156 5.188 5.156A5.152 5.152 0 0010.343 8v-.469H5.656v1.875h2.485a3.261 3.261 0 01-2.954 1.875C3.38 11.281 1.876 9.81 1.876 8c0-1.809 1.504-3.281 3.313-3.281zm9.375.937h-1.876v1.407h-1.406v1.875h1.406v1.406h1.876V8.938H16V7.062h-1.438zm0 0"/></symbol><symbol id="facebook" viewBox="0 0 16 16"><path d="M10.664 2.656h1.461V.113A18.633 18.633 0 009.996 0C7.891 0 6.45 1.324 6.45 3.758V6H4.125v2.844h2.324V16h2.848V8.844h2.23L11.883 6H9.297V4.043c0-.824.223-1.387 1.367-1.387zm0 0"/></symbol><symbol id="filter" viewBox="0 0 24 24"><path d="M12 19.023L1.246 8.305 0 9.555l12 11.96 12-11.96-1.246-1.25zm0 0"/><path d="M24 3.734l-1.246-1.25L12 13.2 1.246 2.484 0 3.734l12 11.961zm0 0"/></symbol><symbol id="grid" viewBox="0 0 15 15"><path id="grid" d="M855 613.75h3.75V610H855v3.75zm5.625 11.25h3.75v-3.75h-3.75V625zM855 625h3.75v-3.75H855V625zm0-5.625h3.75v-3.75H855v3.75zm5.625 0h3.75v-3.75h-3.75v3.75zM866.25 610v3.75H870V610h-3.75zm-5.625 3.75h3.75V610h-3.75v3.75zm5.625 5.625H870v-3.75h-3.75v3.75zm0 5.625H870v-3.75h-3.75V625z" transform="translate(-855 -610)"/></symbol><symbol id="list" viewBox="0 0 20 15"><path id="list" d="M885.007 610h4.422v4.172h-4.422V610zm5.828 0h14.159v4.172h-14.159V610zm-5.828 5.413h4.422v4.172h-4.422v-4.172zm5.828 0h14.159v4.172h-14.159v-4.172zm-5.828 5.414h4.422V625h-4.422v-4.171zm5.828 0h14.159V625h-14.159v-4.171z" transform="translate(-885 -610)"/></symbol><symbol id="filters" viewBox="0 0 32 32"><path d="M28 9H11a1 1 0 010-2h17a1 1 0 010 2zM7 9H4a1 1 0 010-2h3a1 1 0 010 2zm14 8H4a1 1 0 010-2h17a1 1 0 010 2zm-10 8H4a1 1 0 010-2h7a1 1 0 010 2z"/><path d="M9 11a3 3 0 113-3 3 3 0 01-3 3zm0-4a1 1 0 101 1 1 1 0 00-1-1zm14 12a3 3 0 113-3 3 3 0 01-3 3zm0-4a1 1 0 101 1 1 1 0 00-1-1zM13 27a3 3 0 113-3 3 3 0 01-3 3zm0-4a1 1 0 101 1 1 1 0 00-1-1z"/><path d="M28 17h-3a1 1 0 010-2h3a1 1 0 010 2zm0 8H15a1 1 0 010-2h13a1 1 0 010 2z"/></symbol><symbol id="play" viewBox="0 0 163.861 163.861"><path d="M34.857 3.613C20.084-4.861 8.107 2.081 8.107 19.106v125.637c0 17.042 11.977 23.975 26.75 15.509L144.67 97.275c14.778-8.477 14.778-22.211 0-30.686L34.857 3.613z"/></symbol><symbol id="star" viewBox="0 0 22 22"><path d="M21.934 8.434a1.165 1.165 0 00-1.004-.801l-6.348-.578-2.512-5.871a1.163 1.163 0 00-1.074-.711c-.469 0-.89.277-1.074.71L7.41 7.056l-6.348.578a1.171 1.171 0 00-.664 2.043l4.801 4.21-1.418 6.231a1.17 1.17 0 001.742 1.262l5.473-3.27 5.473 3.27c.402.242.906.219 1.285-.055.379-.273.558-.75.457-1.207l-1.418-6.23 4.8-4.211c.352-.309.485-.793.34-1.242zm-10.832 9.609"/></symbol><symbol id="loop" viewBox="0 0 17 17"><path d="M16.793 15.79l-4.836-4.833a6.694 6.694 0 001.5-4.227c0-3.71-3.02-6.73-6.727-6.73C3.02 0 0 3.02 0 6.73c0 3.707 3.02 6.727 6.73 6.727 1.598 0 3.07-.562 4.227-1.5l4.832 4.836a.72.72 0 00.504.207.71.71 0 00.5-1.21zM6.73 12.042A5.318 5.318 0 011.418 6.73 5.318 5.318 0 016.73 1.418a5.318 5.318 0 015.313 5.312 5.318 5.318 0 01-5.313 5.313zm0 0"/></symbol><symbol id="clock" viewBox="0 0 14 14"><path d="M9.496 8.234l-1.953-1.46V3.788A.544.544 0 007 3.246c-.3 0-.543.246-.543.543v3.254a.54.54 0 00.219.434l2.168 1.628a.542.542 0 00.652-.871zm0 0"/><path d="M7 0C3.14 0 0 3.14 0 7s3.14 7 7 7 7-3.14 7-7-3.14-7-7-7zm0 12.914A5.92 5.92 0 011.086 7 5.92 5.92 0 017 1.086 5.92 5.92 0 0112.914 7 5.92 5.92 0 017 12.914zm0 0"/></symbol><symbol id="phone" viewBox="0 0 37 37"><path d="M25.438.578H11.563a2.89 2.89 0 00-2.891 2.89v30.063a2.89 2.89 0 002.89 2.89h13.876a2.89 2.89 0 002.89-2.89V3.47a2.89 2.89 0 00-2.89-2.89zm-3.02 1.156l-.344 1.735h-7.148l-.344-1.735zm4.754 31.797c0 .957-.777 1.735-1.735 1.735H11.563a1.735 1.735 0 01-1.734-1.735V3.47c0-.957.777-1.735 1.735-1.735h1.84l.484 2.426c.054.27.289.465.566.465h8.094a.577.577 0 00.566-.465l.485-2.426h1.84c.957 0 1.734.778 1.734 1.735zm0 0"/><path d="M15.031 32.953h-3.469a.577.577 0 00-.578.578c0 .32.258.578.579.578h3.468a.577.577 0 100-1.156zm2.313 0h-.578a.577.577 0 00-.578.578c0 .32.257.578.578.578h.578a.577.577 0 100-1.156zm0 0"/></symbol><symbol id="address" viewBox="0 0 37 37"><path d="M35.973 12.273L18.918.133a.728.728 0 00-.836 0L1.027 12.273a.72.72 0 00-.27.809.72.72 0 00.688.504h2.457v18.5h-1.23a.724.724 0 00-.723.723v3.468c0 .399.324.723.723.723h31.656a.72.72 0 00.719-.723V32.81a.72.72 0 00-.719-.723h-1.23v-18.5h2.457a.72.72 0 00.687-.504.72.72 0 00-.27-.809zm-2.371 23.282H3.398V33.53h30.204zm-10.332-3.47h-9.54V17.634h9.54zm-1.52-19.944a.72.72 0 00-.719.722c0 .399.32.723.719.723h9.902v18.5h-6.937V16.91a.724.724 0 00-.723-.723H13.008a.724.724 0 00-.723.723v15.176H5.348v-18.5h9.902a.72.72 0 00.719-.723.72.72 0 00-.719-.722H3.707L18.5 1.609l14.793 10.532zm0 0"/><path d="M16.453 25.582a.738.738 0 00.512-.21.738.738 0 00.21-.513.738.738 0 00-.21-.511.738.738 0 00-.512-.211.73.73 0 00-.512.21.738.738 0 00-.21.512.74.74 0 00.21.512c.137.133.32.211.512.211zm1.535-13.23a.738.738 0 00-.21.511c0 .192.077.375.21.512.137.133.32.21.512.21a.738.738 0 00.512-.21.738.738 0 00.21-.512.738.738 0 00-.21-.511.738.738 0 00-.512-.211.738.738 0 00-.512.21zm0 0"/></symbol><symbol id="email" viewBox="0 0 37 37"><path d="M33.531 4.625H3.47A3.47 3.47 0 000 8.094v20.812a3.47 3.47 0 003.469 3.469H33.53A3.47 3.47 0 0037 28.906V8.094a3.47 3.47 0 00-3.469-3.469zm0 2.313c.157 0 .305.03.442.09L18.5 20.437 3.027 7.027c.137-.06.285-.09.442-.09zm0 23.125H3.47c-.637 0-1.156-.52-1.156-1.157V9.47l15.43 13.375a1.162 1.162 0 001.515 0L34.689 9.47v19.437a1.16 1.16 0 01-1.157 1.157zm0 0"/></symbol></svg>