<svg xmlns="http://www.w3.org/2000/svg" width="37pt" height="37pt" viewBox="0 0 37 37"><g id="surface1"><path d="M35.973 12.273L18.918.133a.728.728 0 00-.836 0L1.027 12.273a.72.72 0 00-.27.809.72.72 0 00.688.504h2.457v18.5h-1.23a.724.724 0 00-.723.723v3.468c0 .399.324.723.723.723h31.656a.72.72 0 00.719-.723V32.81a.72.72 0 00-.719-.723h-1.23v-18.5h2.457a.72.72 0 00.687-.504.72.72 0 00-.27-.809zm-2.371 23.282H3.398V33.53h30.204zm-10.332-3.47h-9.54V17.634h9.54zm-1.52-19.944a.72.72 0 00-.719.722c0 .399.32.723.719.723h9.902v18.5h-6.937V16.91a.724.724 0 00-.723-.723H13.008a.724.724 0 00-.723.723v15.176H5.348v-18.5h9.902a.72.72 0 00.719-.723.72.72 0 00-.719-.722H3.707L18.5 1.609l14.793 10.532zm0 0"/><path d="M16.453 25.582a.738.738 0 00.512-.21.738.738 0 00.21-.513.738.738 0 00-.21-.511.738.738 0 00-.512-.211.73.73 0 00-.512.21.738.738 0 00-.21.512.74.74 0 00.21.512c.137.133.32.211.512.211zm1.535-13.23a.738.738 0 00-.21.511c0 .192.077.375.21.512.137.133.32.21.512.21a.738.738 0 00.512-.21.738.738 0 00.21-.512.738.738 0 00-.21-.511.738.738 0 00-.512-.211.738.738 0 00-.512.21zm0 0"/></g></svg>