<svg xmlns="http://www.w3.org/2000/svg" width="17pt" height="17pt" viewBox="0 0 17 17"><path d="M5.477 10.992c.003 0 .003-.004.003-.004h9.028a.498.498 0 00.48-.36l1.992-6.972a.502.502 0 00-.082-.437.49.49 0 00-.398-.196H4.328l-.355-1.605a.498.498 0 00-.489-.387H.496A.497.497 0 000 1.527a.5.5 0 00.496.5h2.59c.062.282 1.703 7.664 1.8 8.09-.53.23-.902.758-.902 1.371 0 .825.672 1.492 1.493 1.492h9.03a.498.498 0 100-.996h-9.03a.497.497 0 010-.992zM15.84 4.02l-1.707 5.972H5.879L4.55 4.02zM4.98 14.477a1.495 1.495 0 002.989 0 1.5 1.5 0 00-1.496-1.497 1.5 1.5 0 00-1.493 1.497zm1.493-.5a.498.498 0 11.005.997.498.498 0 01-.005-.997zm5.547.5a1.495 1.495 0 002.988 0 1.5 1.5 0 00-1.496-1.497c-.82 0-1.492.672-1.492 1.497zm1.492-.5a.498.498 0 11.005.997.498.498 0 01-.005-.997zm0 0"/></svg>