<?xml version="1.0" encoding="UTF-8"?>
<svg xmlns="http://www.w3.org/2000/svg" xmlns:xlink="http://www.w3.org/1999/xlink" width="14pt" height="14pt" viewBox="0 0 14 14" version="1.1">
<g id="surface1">
<path style=" stroke:none;fill-rule:nonzero;fill:rgb(0%,0%,0%);fill-opacity:1;" d="M 9.496094 8.234375 L 7.542969 6.773438 L 7.542969 3.789062 C 7.542969 3.492188 7.300781 3.246094 7 3.246094 C 6.699219 3.246094 6.457031 3.492188 6.457031 3.789062 L 6.457031 7.042969 C 6.457031 7.214844 6.539062 7.375 6.675781 7.476562 L 8.84375 9.105469 C 8.941406 9.175781 9.054688 9.210938 9.167969 9.210938 C 9.332031 9.210938 9.496094 9.136719 9.601562 8.996094 C 9.78125 8.753906 9.734375 8.414062 9.496094 8.234375 Z M 9.496094 8.234375 "/>
<path style=" stroke:none;fill-rule:nonzero;fill:rgb(0%,0%,0%);fill-opacity:1;" d="M 7 0 C 3.140625 0 0 3.140625 0 7 C 0 10.859375 3.140625 14 7 14 C 10.859375 14 14 10.859375 14 7 C 14 3.140625 10.859375 0 7 0 Z M 7 12.914062 C 3.738281 12.914062 1.085938 10.261719 1.085938 7 C 1.085938 3.738281 3.738281 1.085938 7 1.085938 C 10.261719 1.085938 12.914062 3.738281 12.914062 7 C 12.914062 10.261719 10.261719 12.914062 7 12.914062 Z M 7 12.914062 "/>
</g>
</svg>
