<?xml version="1.0" encoding="UTF-8"?>
<svg xmlns="http://www.w3.org/2000/svg" xmlns:xlink="http://www.w3.org/1999/xlink" width="18pt" height="18pt" viewBox="0 0 18 18" version="1.1">
<g id="surface1">
<path d="M 9 17 C 8.742188 17 8.496094 16.90625 8.304688 16.738281 C 7.578125 16.101562 6.875 15.503906 6.257812 14.976562 L 6.253906 14.972656 C 4.441406 13.429688 2.875 12.09375 1.785156 10.78125 C 0.566406 9.308594 0 7.917969 0 6.394531 C 0 4.914062 0.507812 3.550781 1.429688 2.550781 C 2.359375 1.539062 3.636719 0.984375 5.027344 0.984375 C 6.066406 0.984375 7.019531 1.3125 7.855469 1.960938 C 8.277344 2.289062 8.664062 2.6875 9 3.15625 C 9.335938 2.6875 9.71875 2.289062 10.144531 1.960938 C 10.980469 1.3125 11.933594 0.984375 12.972656 0.984375 C 14.363281 0.984375 15.640625 1.539062 16.570312 2.550781 C 17.492188 3.550781 18 4.914062 18 6.394531 C 18 7.917969 17.433594 9.308594 16.214844 10.777344 C 15.125 12.09375 13.558594 13.429688 11.746094 14.972656 C 11.125 15.5 10.425781 16.101562 9.695312 16.738281 C 9.503906 16.90625 9.257812 17 9 17 Z M 5.027344 2.039062 C 3.9375 2.039062 2.933594 2.476562 2.203125 3.265625 C 1.460938 4.070312 1.054688 5.179688 1.054688 6.394531 C 1.054688 7.675781 1.53125 8.820312 2.597656 10.105469 C 3.628906 11.351562 5.160156 12.65625 6.9375 14.171875 L 6.941406 14.175781 C 7.5625 14.703125 8.265625 15.304688 9 15.945312 C 9.734375 15.300781 10.441406 14.703125 11.0625 14.171875 C 12.839844 12.65625 14.371094 11.351562 15.402344 10.105469 C 16.46875 8.820312 16.945312 7.675781 16.945312 6.394531 C 16.945312 5.179688 16.539062 4.070312 15.796875 3.265625 C 15.066406 2.476562 14.0625 2.039062 12.972656 2.039062 C 12.171875 2.039062 11.4375 2.292969 10.789062 2.792969 C 10.210938 3.242188 9.808594 3.808594 9.570312 4.203125 C 9.449219 4.40625 9.238281 4.527344 9 4.527344 C 8.761719 4.527344 8.550781 4.40625 8.429688 4.203125 C 8.191406 3.808594 7.789062 3.242188 7.210938 2.792969 C 6.5625 2.292969 5.828125 2.039062 5.027344 2.039062 Z M 5.027344 2.039062 "/>
</g>
</svg>
