<svg xmlns="http://www.w3.org/2000/svg" width="24" height="24" viewBox="0 0 18 18"><path d="M9 17a1.05 1.05 0 01-.695-.262c-.727-.636-1.43-1.234-2.047-1.761l-.004-.004c-1.813-1.543-3.379-2.88-4.469-4.192C.566 9.31 0 7.918 0 6.395 0 4.915.508 3.55 1.43 2.55A4.825 4.825 0 015.027.984a4.52 4.52 0 012.828.977c.422.328.81.726 1.145 1.195a5.659 5.659 0 011.145-1.195 4.52 4.52 0 012.828-.977c1.39 0 2.668.555 3.597 1.567.922 1 1.43 2.363 1.43 3.844 0 1.523-.566 2.914-1.785 4.382-1.09 1.317-2.656 2.653-4.469 4.196-.621.527-1.32 1.129-2.05 1.765A1.053 1.053 0 019 17zM5.027 2.04c-1.09 0-2.093.437-2.824 1.226-.742.804-1.148 1.914-1.148 3.129 0 1.28.476 2.425 1.543 3.71 1.03 1.247 2.562 2.551 4.34 4.067l.003.004A203.25 203.25 0 019 15.946c.734-.645 1.441-1.243 2.063-1.774 1.777-1.516 3.308-2.82 4.34-4.067 1.066-1.285 1.542-2.43 1.542-3.71 0-1.215-.406-2.325-1.148-3.13a3.808 3.808 0 00-2.824-1.226c-.801 0-1.536.254-2.184.754-.578.45-.98 1.016-1.219 1.41a.656.656 0 01-.57.324.656.656 0 01-.57-.324c-.239-.394-.64-.96-1.22-1.41a3.503 3.503 0 00-2.183-.754zm0 0"/></svg>