<?xml version="1.0" encoding="UTF-8"?>
<svg xmlns="http://www.w3.org/2000/svg" xmlns:xlink="http://www.w3.org/1999/xlink" width="16pt" height="16pt" viewBox="0 0 16 16" version="1.1">
<g id="surface1">
<path d="M 11.667969 0 L 4.332031 0 C 1.941406 0 0 1.941406 0 4.332031 L 0 11.667969 C 0 14.058594 1.941406 16 4.332031 16 L 11.667969 16 C 14.058594 16 16 14.058594 16 11.667969 L 16 4.332031 C 16 1.941406 14.058594 0 11.667969 0 Z M 15.0625 11.667969 C 15.0625 13.539062 13.539062 15.0625 11.667969 15.0625 L 4.332031 15.0625 C 2.460938 15.0625 0.9375 13.539062 0.9375 11.667969 L 0.9375 4.332031 C 0.9375 2.460938 2.460938 0.9375 4.332031 0.9375 L 11.667969 0.9375 C 13.539062 0.9375 15.0625 2.460938 15.0625 4.332031 Z M 15.0625 11.667969 "/>
<path d="M 8 3.625 C 5.585938 3.625 3.625 5.585938 3.625 8 C 3.625 10.414062 5.585938 12.375 8 12.375 C 10.414062 12.375 12.375 10.414062 12.375 8 C 12.375 5.585938 10.414062 3.625 8 3.625 Z M 8 11.4375 C 6.105469 11.4375 4.5625 9.894531 4.5625 8 C 4.5625 6.105469 6.105469 4.5625 8 4.5625 C 9.894531 4.5625 11.4375 6.105469 11.4375 8 C 11.4375 9.894531 9.894531 11.4375 8 11.4375 Z M 8 11.4375 "/>
<path d="M 12.480469 2.070312 C 11.765625 2.070312 11.1875 2.652344 11.1875 3.363281 C 11.1875 4.078125 11.765625 4.65625 12.480469 4.65625 C 13.191406 4.65625 13.773438 4.078125 13.773438 3.363281 C 13.773438 2.652344 13.191406 2.070312 12.480469 2.070312 Z M 12.480469 3.71875 C 12.285156 3.71875 12.125 3.558594 12.125 3.363281 C 12.125 3.167969 12.285156 3.007812 12.480469 3.007812 C 12.675781 3.007812 12.835938 3.167969 12.835938 3.363281 C 12.835938 3.558594 12.675781 3.71875 12.480469 3.71875 Z M 12.480469 3.71875 "/>
</g>
</svg>
