<svg xmlns="http://www.w3.org/2000/svg" width="16pt" height="16pt" viewBox="0 0 16 16"><path d="M11.668 0H4.332A4.334 4.334 0 000 4.332v7.336A4.334 4.334 0 004.332 16h7.336A4.334 4.334 0 0016 11.668V4.332A4.334 4.334 0 0011.668 0zm3.395 11.668a3.4 3.4 0 01-3.395 3.395H4.332a3.4 3.4 0 01-3.394-3.395V4.332A3.4 3.4 0 014.332.938h7.336a3.4 3.4 0 013.395 3.394zm0 0"/><path d="M8 3.625A4.378 4.378 0 003.625 8 4.378 4.378 0 008 12.375 4.378 4.378 0 0012.375 8 4.378 4.378 0 008 3.625zm0 7.813A3.443 3.443 0 014.562 8 3.443 3.443 0 018 4.562 3.443 3.443 0 0111.438 8 3.443 3.443 0 018 11.438zm4.48-9.368a1.292 1.292 0 10-.002 2.588 1.292 1.292 0 00.002-2.588zm0 1.649a.357.357 0 01-.355-.356.356.356 0 01.711 0c0 .196-.16.356-.356.356zm0 0"/></svg>