<svg xmlns="http://www.w3.org/2000/svg" xmlns:xlink="http://www.w3.org/1999/xlink" width="15pt" height="15pt" viewBox="0 0 15 15" version="1.1"><path style=" stroke:none;fill-rule:nonzero;fill:rgb(0%,0%,0%);fill-opacity:1;" d="M 14.097656 6.445312 C 14.035156 6.4375 13.976562 6.433594 13.914062 6.433594 L 3.332031 6.433594 L 3.5625 6.324219 C 3.785156 6.21875 3.992188 6.074219 4.167969 5.898438 L 7.136719 2.929688 C 7.527344 2.554688 7.589844 1.957031 7.289062 1.507812 C 6.941406 1.027344 6.269531 0.925781 5.789062 1.273438 C 5.753906 1.304688 5.714844 1.335938 5.679688 1.367188 L 0.316406 6.734375 C -0.105469 7.152344 -0.105469 7.832031 0.3125 8.25 C 0.3125 8.253906 0.316406 8.253906 0.316406 8.253906 L 5.679688 13.617188 C 6.101562 14.039062 6.78125 14.035156 7.199219 13.617188 C 7.230469 13.582031 7.261719 13.546875 7.289062 13.511719 C 7.589844 13.0625 7.527344 12.460938 7.136719 12.089844 L 4.171875 9.117188 C 4.015625 8.957031 3.835938 8.828125 3.636719 8.726562 L 3.316406 8.578125 L 13.855469 8.578125 C 14.402344 8.601562 14.882812 8.21875 14.984375 7.679688 C 15.082031 7.09375 14.683594 6.542969 14.097656 6.445312 Z M 14.097656 6.445312 "/></svg>