<svg xmlns="http://www.w3.org/2000/svg" xmlns:xlink="http://www.w3.org/1999/xlink" width="35pt" height="35pt" viewBox="0 0 35 35" version="1.1"><path style=" stroke:none;fill-rule:nonzero;fill:rgb(255%,255%,255%);fill-opacity:1;" d="M 14.128906 17.507812 L 27.222656 4.414062 C 27.582031 4.054688 27.78125 3.574219 27.78125 3.058594 C 27.78125 2.546875 27.582031 2.066406 27.222656 1.707031 L 26.074219 0.558594 C 25.714844 0.199219 25.234375 0 24.722656 0 C 24.207031 0 23.726562 0.199219 23.367188 0.558594 L 7.777344 16.148438 C 7.414062 16.511719 7.21875 16.992188 7.21875 17.507812 C 7.21875 18.023438 7.414062 18.503906 7.777344 18.867188 L 23.351562 34.441406 C 23.714844 34.800781 24.195312 35 24.707031 35 C 25.21875 35 25.699219 34.800781 26.058594 34.441406 L 27.207031 33.292969 C 27.953125 32.546875 27.953125 31.332031 27.207031 30.585938 Z M 14.128906 17.507812 "/></svg>
