<?xml version="1.0" encoding="UTF-8"?>
<svg xmlns="http://www.w3.org/2000/svg" xmlns:xlink="http://www.w3.org/1999/xlink" width="17pt" height="17pt" viewBox="0 0 17 17" version="1.1">
<path d="M 16.792969 15.789062 L 11.957031 10.957031 C 12.894531 9.800781 13.457031 8.328125 13.457031 6.730469 C 13.457031 3.019531 10.4375 0 6.730469 0 C 3.019531 0 0 3.019531 0 6.730469 C 0 10.4375 3.019531 13.457031 6.730469 13.457031 C 8.328125 13.457031 9.800781 12.894531 10.957031 11.957031 L 15.789062 16.792969 C 15.929688 16.929688 16.109375 17 16.292969 17 C 16.472656 17 16.652344 16.929688 16.792969 16.792969 C 17.070312 16.515625 17.070312 16.066406 16.792969 15.789062 Z M 6.730469 12.042969 C 3.800781 12.042969 1.417969 9.660156 1.417969 6.730469 C 1.417969 3.800781 3.800781 1.417969 6.730469 1.417969 C 9.660156 1.417969 12.042969 3.800781 12.042969 6.730469 C 12.042969 9.660156 9.660156 12.042969 6.730469 12.042969 Z M 6.730469 12.042969 "/>
</svg>
