<?xml version="1.0" encoding="UTF-8"?>
<svg xmlns="http://www.w3.org/2000/svg" xmlns:xlink="http://www.w3.org/1999/xlink" width="37pt" height="37pt" viewBox="0 0 37 37" version="1.1">
<g id="surface1">
<path d="M 25.4375 0.578125 L 11.5625 0.578125 C 9.964844 0.578125 8.671875 1.871094 8.671875 3.46875 L 8.671875 33.53125 C 8.671875 35.128906 9.964844 36.421875 11.5625 36.421875 L 25.4375 36.421875 C 27.035156 36.421875 28.328125 35.128906 28.328125 33.53125 L 28.328125 3.46875 C 28.328125 1.871094 27.035156 0.578125 25.4375 0.578125 Z M 22.417969 1.734375 L 22.074219 3.46875 L 14.925781 3.46875 L 14.582031 1.734375 Z M 27.171875 33.53125 C 27.171875 34.488281 26.394531 35.265625 25.4375 35.265625 L 11.5625 35.265625 C 10.605469 35.265625 9.828125 34.488281 9.828125 33.53125 L 9.828125 3.46875 C 9.828125 2.511719 10.605469 1.734375 11.5625 1.734375 L 13.402344 1.734375 L 13.886719 4.160156 C 13.941406 4.429688 14.175781 4.625 14.453125 4.625 L 22.546875 4.625 C 22.824219 4.625 23.058594 4.429688 23.113281 4.160156 L 23.597656 1.734375 L 25.4375 1.734375 C 26.394531 1.734375 27.171875 2.511719 27.171875 3.46875 Z M 27.171875 33.53125 "/>
<path d="M 15.03125 32.953125 L 11.5625 32.953125 C 11.242188 32.953125 10.984375 33.210938 10.984375 33.53125 C 10.984375 33.851562 11.242188 34.109375 11.5625 34.109375 L 15.03125 34.109375 C 15.351562 34.109375 15.609375 33.851562 15.609375 33.53125 C 15.609375 33.210938 15.351562 32.953125 15.03125 32.953125 Z M 15.03125 32.953125 "/>
<path d="M 17.34375 32.953125 L 16.765625 32.953125 C 16.445312 32.953125 16.1875 33.210938 16.1875 33.53125 C 16.1875 33.851562 16.445312 34.109375 16.765625 34.109375 L 17.34375 34.109375 C 17.664062 34.109375 17.921875 33.851562 17.921875 33.53125 C 17.921875 33.210938 17.664062 32.953125 17.34375 32.953125 Z M 17.34375 32.953125 "/>
</g>
</svg>
