<svg xmlns="http://www.w3.org/2000/svg" width="37pt" height="37pt" viewBox="0 0 37 37"><g id="surface1"><path d="M25.438.578H11.563a2.89 2.89 0 00-2.891 2.89v30.063a2.89 2.89 0 002.89 2.89h13.876a2.89 2.89 0 002.89-2.89V3.47a2.89 2.89 0 00-2.89-2.89zm-3.02 1.156l-.344 1.735h-7.148l-.344-1.735zm4.754 31.797c0 .957-.777 1.735-1.735 1.735H11.563a1.735 1.735 0 01-1.734-1.735V3.47c0-.957.777-1.735 1.735-1.735h1.84l.484 2.426c.054.27.289.465.566.465h8.094a.577.577 0 00.566-.465l.485-2.426h1.84c.957 0 1.734.778 1.734 1.735zm0 0"/><path d="M15.031 32.953h-3.469a.577.577 0 00-.578.578c0 .32.258.578.579.578h3.468a.577.577 0 100-1.156zm2.313 0h-.578a.577.577 0 00-.578.578c0 .32.257.578.578.578h.578a.577.577 0 100-1.156zm0 0"/></g></svg>