<svg xmlns="http://www.w3.org/2000/svg" xmlns:xlink="http://www.w3.org/1999/xlink" width="15pt" height="15pt" viewBox="0 0 15 15" version="1.1"><path d="M 14.761719 6.917969 L 9.34375 1.5 C 9.1875 1.34375 8.984375 1.261719 8.761719 1.261719 C 8.542969 1.261719 8.335938 1.34375 8.183594 1.5 L 7.691406 1.992188 C 7.535156 2.144531 7.449219 2.351562 7.449219 2.574219 C 7.449219 2.792969 7.535156 3.003906 7.691406 3.160156 L 10.851562 6.328125 L 0.808594 6.328125 C 0.359375 6.328125 0 6.679688 0 7.132812 L 0 7.828125 C 0 8.28125 0.359375 8.671875 0.808594 8.671875 L 10.886719 8.671875 L 7.691406 11.855469 C 7.535156 12.011719 7.449219 12.210938 7.449219 12.433594 C 7.449219 12.652344 7.535156 12.855469 7.691406 13.011719 L 8.183594 13.5 C 8.335938 13.65625 8.542969 13.738281 8.761719 13.738281 C 8.984375 13.738281 9.1875 13.652344 9.34375 13.5 L 14.761719 8.082031 C 14.914062 7.925781 15 7.71875 15 7.5 C 15 7.277344 14.914062 7.070312 14.761719 6.917969 Z M 14.761719 6.917969 "/></svg>