<?xml version="1.0" encoding="UTF-8"?>
<svg xmlns="http://www.w3.org/2000/svg" xmlns:xlink="http://www.w3.org/1999/xlink" width="22pt" height="22pt" viewBox="0 0 22 22" version="1.1">
<path d="M 21.933594 8.433594 C 21.789062 7.988281 21.394531 7.675781 20.929688 7.632812 L 14.582031 7.054688 L 12.070312 1.183594 C 11.886719 0.75 11.464844 0.472656 10.996094 0.472656 C 10.527344 0.472656 10.105469 0.75 9.921875 1.183594 L 7.410156 7.054688 L 1.0625 7.632812 C 0.597656 7.675781 0.203125 7.992188 0.0585938 8.433594 C -0.0859375 8.878906 0.046875 9.367188 0.398438 9.675781 L 5.199219 13.886719 L 3.78125 20.117188 C 3.679688 20.574219 3.855469 21.050781 4.238281 21.324219 C 4.441406 21.472656 4.679688 21.546875 4.921875 21.546875 C 5.128906 21.546875 5.335938 21.492188 5.523438 21.378906 L 10.996094 18.109375 L 16.46875 21.378906 C 16.871094 21.621094 17.375 21.597656 17.753906 21.324219 C 18.132812 21.050781 18.3125 20.574219 18.210938 20.117188 L 16.792969 13.886719 L 21.59375 9.675781 C 21.945312 9.367188 22.078125 8.882812 21.933594 8.433594 Z M 11.101562 18.042969 "/>
</svg>
