<?xml version="1.0" encoding="UTF-8"?>
<svg xmlns="http://www.w3.org/2000/svg" xmlns:xlink="http://www.w3.org/1999/xlink" width="16pt" height="16pt" viewBox="0 0 16 16" version="1.1">
<g id="surface1">
<path style=" stroke:none;fill-rule:nonzero;fill:rgb(0%,0%,0%);fill-opacity:1;" d="M 13.65625 10.34375 C 12.785156 9.472656 11.75 8.828125 10.617188 8.4375 C 11.828125 7.601562 12.625 6.203125 12.625 4.625 C 12.625 2.074219 10.550781 0 8 0 C 5.449219 0 3.375 2.074219 3.375 4.625 C 3.375 6.203125 4.171875 7.601562 5.382812 8.4375 C 4.25 8.828125 3.214844 9.472656 2.34375 10.34375 C 0.832031 11.855469 0 13.863281 0 16 L 1.25 16 C 1.25 12.277344 4.277344 9.25 8 9.25 C 11.722656 9.25 14.75 12.277344 14.75 16 L 16 16 C 16 13.863281 15.167969 11.855469 13.65625 10.34375 Z M 8 8 C 6.140625 8 4.625 6.484375 4.625 4.625 C 4.625 2.765625 6.140625 1.25 8 1.25 C 9.859375 1.25 11.375 2.765625 11.375 4.625 C 11.375 6.484375 9.859375 8 8 8 Z M 8 8 "/>
</g>
</svg>
